<svg id="_24x24-GenderMan" data-name="24x24-GenderMan" xmlns="http://www.w3.org/2000/svg" width="24" height="24" viewBox="0 0 24 24">
  <rect id="Frame24" width="24" height="24" fill="#fff" opacity="0"/>
  <path id="gender-man" d="M4.438,6.358a11.215,11.215,0,0,0-.376,3.913.2.2,0,0,1-.117.1,2.921,2.921,0,0,0-1.918,2.351c-.012.087-.021.174-.027.259v.493a2.75,2.75,0,0,0,2.258,2.491c.069.019.144.051.158.12A7.472,7.472,0,0,0,9,21.449a7.844,7.844,0,0,0,10.329-4.318,8.034,8.034,0,0,1,.371-1.12A2.624,2.624,0,0,0,21.8,14.178a2.9,2.9,0,0,0,.2-1.026V13.1A2.918,2.918,0,0,0,20.138,10.4a.45.45,0,0,1-.182-.2,7.433,7.433,0,0,0,.127-3.483A2.87,2.87,0,0,0,17.292,3.96a2.865,2.865,0,0,0-.881.212C15.725,2.646,13.768,1.9,11.623,1.9,8.56,1.9,5.115,3.42,4.438,6.358Zm6.183,3.09a9.917,9.917,0,0,0,1.531-.255,5.413,5.413,0,0,0,1.953-.8,5.808,5.808,0,0,0,1.61-1.449c1.583.275,1.671,3.128,2.187,4.47a.827.827,0,0,0,1.021.45.754.754,0,0,0,.143.014,1.25,1.25,0,0,1,.017,2.5.743.743,0,0,0-.72.318,7.132,7.132,0,0,0-.388,1.27A6.261,6.261,0,0,1,7.758,18.711a5.2,5.2,0,0,1-1.824-3.687.7.7,0,0,0-.7-.652H4.916a1.249,1.249,0,1,1,.023-2.5c.029,0,.057,0,.086-.007a1.392,1.392,0,0,0,.681-.093c.668-.225.636-1.868.785-2.5.037-.153.078-.3.123-.427A5.657,5.657,0,0,0,9.538,9.5c.342,0,.7-.018,1.083-.052Zm3.463,3.009a1.041,1.041,0,1,0,1.041-1.042,1.04,1.04,0,0,0-1.041,1.042Zm-6.251,0a1.042,1.042,0,1,0,1.042-1.042,1.04,1.04,0,0,0-1.042,1.042Zm5.855,3.463A5.519,5.519,0,0,1,12,16.148a5.5,5.5,0,0,1-1.687-.228.807.807,0,0,0-.995.459q-.011.027-.02.055a.819.819,0,0,0,.517,1.037,6.8,6.8,0,0,0,2.156.359h.057a6.784,6.784,0,0,0,2.156-.359.82.82,0,0,0,.519-1.037c-.006-.019-.014-.036-.021-.055a.808.808,0,0,0-.746-.5.8.8,0,0,0-.248.04Z" transform="translate(0 0.1)" fill="#5A7087"/>
<style type="text/css" media="screen">path{vector-effect:non-scaling-stroke}</style></svg>
