<svg id="_24x24-Child" data-name="24x24-Child" xmlns="http://www.w3.org/2000/svg" width="24" height="24" viewBox="0 0 24 24">
  <rect id="Frame24" width="24" height="24" fill="#fff" opacity="0"/>
  <path id="child" d="M8.875,10.949A1.041,1.041,0,1,1,7.833,11.99,1.042,1.042,0,0,1,8.875,10.949Zm6.25,0a1.041,1.041,0,1,1-1.042,1.041A1.042,1.042,0,0,1,15.125,10.949Zm3.958,3.957a1.25,1.25,0,1,0-.017-2.5h0a.823.823,0,0,1-.812-.833v-1.25a6.241,6.241,0,0,0-3.144-5.413.217.217,0,0,0-.129-.023.21.21,0,0,0-.178.237,3.253,3.253,0,0,1-.012,1.3,2.9,2.9,0,0,1-2.763,2.237,2.812,2.812,0,0,1-2.281-1.38.833.833,0,1,1,1.5-.727,1.061,1.061,0,0,0,1.407.255l.022-.017a1.405,1.405,0,0,0,.257-1.972,1.649,1.649,0,0,0-1.048-.726l-.017-.008A6.248,6.248,0,0,0,5.75,10.324v1.26a.823.823,0,0,1-.816.829,1.25,1.25,0,1,0-.017,2.5h.312a.833.833,0,0,1,.8.588c1.235,4.01,6.149,6.021,10.417,2.832a4.3,4.3,0,0,0,1.51-2.749.834.834,0,0,1,.819-.678h.312Zm.833-4.189a.2.2,0,0,0,.138.19,2.915,2.915,0,0,1-.574,5.637.2.2,0,0,0-.157.12,7.918,7.918,0,0,1-14.648,0,.2.2,0,0,0-.157-.12,2.915,2.915,0,0,1-.658-5.607.436.436,0,0,0,.222-.357v-.257c0-.175.006-.351.017-.526a7.925,7.925,0,0,1,8.442-7.37A8.1,8.1,0,0,1,19.917,10.6v.114Zm-6.383,4.474a.815.815,0,0,1,.071-.062.833.833,0,1,1,1.028,1.311,4.085,4.085,0,0,1-5.265,0,.833.833,0,0,1,1.1-1.25,2.514,2.514,0,0,0,3.068,0Z" transform="translate(0 0.59)" fill="#5A7087"/>
<style type="text/css" media="screen">path{vector-effect:non-scaling-stroke}</style></svg>
