<svg id="_24x24-Contact" data-name="24x24-Contact" xmlns="http://www.w3.org/2000/svg" width="24" height="24" viewBox="0 0 24 24">
  <rect id="Frame24" width="24" height="24" fill="#fff" opacity="0"/>
  <path id="Contact" d="M-109.053,463.035h-12.164a1.672,1.672,0,0,0-1.667,1.667h0v1.165a.179.179,0,0,1-.167.167h-1.5a.834.834,0,0,0-.834.834.834.834,0,0,0,.834.833h4.052a.667.667,0,0,1,.64.693.666.666,0,0,1-.692.64h-1.916c-.25-.084-.417.083-.417.333v5.25a.179.179,0,0,1-.167.167h-1.5a.748.748,0,0,0-.1,0,.787.787,0,0,0-.738.833.753.753,0,0,0,0,.1.787.787,0,0,0,.833.738h4a.666.666,0,0,1,.666.668.666.666,0,0,1-.667.666h-1.916c-.25-.084-.417.083-.417.333v1.25a1.672,1.672,0,0,0,1.667,1.667h12.164a1.671,1.671,0,0,0,1.667-1.667V464.7A1.672,1.672,0,0,0-109.053,463.035Zm-1.8,11.75h-7.463a.29.29,0,0,1-.269-.269,4.681,4.681,0,0,1,.336-1.677,3.678,3.678,0,0,1,2.012-1.14c.067,0,.134-.067.2-.067l.269-.134c.067-.067.067-.067.067-.134a.948.948,0,0,0-.067-.6,2.476,2.476,0,0,1-.671-2.012,1.95,1.95,0,0,1,1.853-2.01,1.951,1.951,0,0,1,1.854,2.01,2.476,2.476,0,0,1-.671,2.012.948.948,0,0,0-.067.6c0,.067,0,.067.067.134l.269.134c.067,0,.134.067.2.067a3.678,3.678,0,0,1,2.012,1.14,4.68,4.68,0,0,1,.335,1.677A.289.289,0,0,1-110.854,474.785Z" transform="translate(128.386 -460.035)" fill="#5A7087"/>
<style type="text/css" media="screen">path{vector-effect:non-scaling-stroke}</style></svg>
