<svg id="_24x24-ChangeFlights" data-name="24x24-ChangeFlights" xmlns="http://www.w3.org/2000/svg" width="24" height="24" viewBox="0 0 24 24">
  <rect id="Frame24" width="24" height="24" fill="#5A7087" opacity="0"/>
  <path id="change-flights" d="M18.613,21.507,17.22,20.114a9.648,9.648,0,0,1-14.73-9.752.9.9,0,0,1,1.773.3A7.847,7.847,0,0,0,15.906,18.8l-1.391-1.387a.6.6,0,0,1,.429-1.024l4.111.017a.6.6,0,0,1,.6.6l-.017,4.076a.6.6,0,0,1-.605.6A.583.583,0,0,1,18.613,21.507Zm-8.4-4.467c-.091-.181.076-.547.17-.784s.764-1.9,1-2.488a.3.3,0,0,0,.035-.2.11.11,0,0,0-.129-.07l-.046.01L8.373,14.63a.531.531,0,0,1-.641-.115L6.255,12.926a1.512,1.512,0,0,1-.219-.3c-.077-.136-.042-.331.247-.446a1.193,1.193,0,0,1,.843-.059l1.014.467a.274.274,0,0,0,.233,0Q15.3,9.749,16.407,9.484c1.112-.261,1.411.077,1.558.456s-.163,1.077-1.229,1.484q-1.192.465-2.387.916a.418.418,0,0,0-.174.118c-1.15,2.306-1.777,3.571-1.885,3.784-.146.289-.234.321-.68.495s-.429.164-.913.348a.868.868,0,0,1-.285.066A.2.2,0,0,1,10.21,17.041Zm10.26-2.665a.9.9,0,0,1-.731-1.042A7.847,7.847,0,0,0,8.095,5.2L9.485,6.585A.6.6,0,0,1,9.06,7.61l-4.076.017a.6.6,0,0,1-.6-.6L4.363,2.917a.6.6,0,0,1,1.024-.425l1.4,1.394A9.649,9.649,0,0,1,21.512,13.64a.9.9,0,0,1-.89.748A.915.915,0,0,1,20.47,14.376Zm-9.9-3.352q-.1-.042-2.095-.854c-.355-.157-.613-.22-.6-.387s.108-.2.659-.432a1.073,1.073,0,0,1,.937-.115h0c.407.07,3.452.784,3.55.878s0,.139-.059.174-1.9.767-2.031.815a.6.6,0,0,1-.08.005A.51.51,0,0,1,10.565,11.024Z" transform="translate(0 0)" fill="#5A7087"/>
<style type="text/css" media="screen">path{vector-effect:non-scaling-stroke}</style></svg>
