<svg id="_24x24-BaggageCabin" data-name="24x24-BaggageCabin" xmlns="http://www.w3.org/2000/svg" width="24" height="24" viewBox="0 0 24 24">
  <rect id="Frame24" width="24" height="24" fill="#fff" opacity="0"/>
  <path id="baggage-cabin" d="M11.16,4.083a.394.394,0,0,1,.417-.417h.833a.394.394,0,0,1,.417.417v2.5A.394.394,0,0,1,12.41,7h-.833a.394.394,0,0,1-.417-.417Zm3.75,6.25h-3.5a.394.394,0,0,0-.417.417v.833a.657.657,0,0,1-.667.667.613.613,0,0,1-.667-.667V10.75a.381.381,0,0,0-.333-.417h-.25a.657.657,0,0,1-.667-.667A.613.613,0,0,1,9.077,9H14.91a.667.667,0,1,1,0,1.333Zm0-3.25a.394.394,0,0,1-.417-.417v-2.5a.394.394,0,0,1,.417-.417.81.81,0,0,0,.833-.917A.747.747,0,0,0,14.91,2H9.077a.785.785,0,0,0-.833.833.766.766,0,0,0,.75.833q.5.125.5.5V6.583A.394.394,0,0,1,9.077,7H8.243A2.175,2.175,0,0,0,6.16,9.083v10a1.98,1.98,0,0,0,1.667,2c.083,0,.167.167.167.25,0,.5.333.667.833.667s.833-.167.833-.667a.179.179,0,0,1,.167-.167h4.167a.179.179,0,0,1,.167.167c0,.5.333.667.833.667s.833-.167.833-.667c0-.083.25-.25.333-.25a2.043,2.043,0,0,0,1.667-2v-10a1.905,1.905,0,0,0-1.917-2Z" transform="translate(-0.01)" fill="#5A7087"/>
<style type="text/css" media="screen">path{vector-effect:non-scaling-stroke}</style></svg>
