<svg id="_24x24-Replace" data-name="24x24-Replace" xmlns="http://www.w3.org/2000/svg" width="24" height="24" viewBox="0 0 24 24">
  <rect id="Frame24" width="24" height="24" fill="#fff" opacity="0"/>
  <path id="replace" d="M5.4,6.282,8.318,9.2A.554.554,0,0,1,8.5,9.63a.575.575,0,0,1-.609.609H5.9V14.5a2.1,2.1,0,0,0,1.95,2.095L8,16.6h7.275a.9.9,0,0,1,.113,1.793l-.113.007H8a3.9,3.9,0,0,1-3.895-3.7L4.1,14.5V10.238H2.109a.535.535,0,0,1-.353-.117l-.074-.066a.588.588,0,0,1,0-.852L4.6,6.282a.52.52,0,0,1,.791,0ZM16,5.6A3.9,3.9,0,0,1,19.89,9.3l0,.2v4.262h1.991a.535.535,0,0,1,.353.117l.073.066a.588.588,0,0,1,0,.852l-2.922,2.922a.52.52,0,0,1-.791,0L15.677,14.8a.554.554,0,0,1-.182-.426.575.575,0,0,1,.609-.609H18.1V9.5a2.1,2.1,0,0,0-1.95-2.095L16,7.4H8.72a.9.9,0,0,1-.113-1.793L8.72,5.6Z" fill="#C91D1D"/>
<style type="text/css" media="screen">path{vector-effect:non-scaling-stroke}</style></svg>
