<svg id="_24x24-RefundMoney" data-name="24x24-RefundMoney" xmlns="http://www.w3.org/2000/svg" width="24" height="24" viewBox="0 0 24 24">
  <rect id="Frame24" width="24" height="24" fill="#C91D1D" opacity="0"/>
  <path id="refund-money" d="M-13739.394-402.422a.9.9,0,0,1-.09-1.36.909.909,0,0,1,1.163-.09,4.125,4.125,0,0,0,2.354.732,4.167,4.167,0,0,0,4.045-5.139,4.141,4.141,0,0,0-3.064-3.065,4.163,4.163,0,0,0-5.122,3.752h1.764a.556.556,0,0,1,.394.949l-2.7,2.682a.556.556,0,0,1-.787,0l-2.657-2.682a.554.554,0,0,1,.394-.946h1.794a5.957,5.957,0,0,1,5.943-5.664,5.963,5.963,0,0,1,5.819,7.258,5.91,5.91,0,0,1-4.456,4.507,6.271,6.271,0,0,1-1.36.151A5.95,5.95,0,0,1-13739.394-402.422Zm-12.6-8.042a.429.429,0,0,1,0-.1v-9.564a.82.82,0,0,1,.773-.87.452.452,0,0,1,.1,0h14.261a.821.821,0,0,1,.869.77v4.811a.392.392,0,0,1-.383.39,7.746,7.746,0,0,0-6.854,5.07.389.389,0,0,1-.365.262h-7.527l-.051,0A.822.822,0,0,1-13752-410.464Zm5.391-4.884a2.564,2.564,0,0,0,2.517,2.609.417.417,0,0,0,.093,0,2.607,2.607,0,0,0,2.609-2.609,2.607,2.607,0,0,0-2.609-2.606A2.607,2.607,0,0,0-13746.607-415.347Zm-3.683-3.072a.876.876,0,0,0,.843.9h.059a.871.871,0,0,0,.9-.842.867.867,0,0,0-.839-.9h-.091A.872.872,0,0,0-13750.29-418.419Z" transform="translate(13753.001 423.3)" fill="#C91D1D" stroke="rgba(0,0,0,0)" stroke-miterlimit="10" stroke-width="1.5"/>
<style type="text/css" media="screen">path{vector-effect:non-scaling-stroke}</style></svg>
