<svg id="_24x24-Filter" data-name="24x24-Filter" xmlns="http://www.w3.org/2000/svg" width="24" height="24" viewBox="0 0 24 24">
  <rect id="Frame24" width="24" height="24" fill="#fff" opacity="0"/>
  <path id="filters" d="M7.824,19H3.177A1.1,1.1,0,0,1,2,18a1.1,1.1,0,0,1,1.176-1H7.823A1.1,1.1,0,0,1,9,18,1.1,1.1,0,0,1,7.824,19ZM13,19v.323A1.1,1.1,0,0,1,12,20.5a1.1,1.1,0,0,1-1-1.177V16.677A1.1,1.1,0,0,1,12,15.5a1.1,1.1,0,0,1,1,1.177V17h7.823A1.1,1.1,0,0,1,22,18a1.1,1.1,0,0,1-1.177,1Zm-.823-6A1.1,1.1,0,0,1,11,12a1.1,1.1,0,0,1,1.177-1h8.647A1.1,1.1,0,0,1,22,12a1.1,1.1,0,0,1-1.177,1H12.176ZM7,13H3.177A1.1,1.1,0,0,1,2,12a1.1,1.1,0,0,1,1.176-1H7v-.323A1.1,1.1,0,0,1,8,9.5a1.1,1.1,0,0,1,1,1.177v2.647A1.1,1.1,0,0,1,8,14.5a1.1,1.1,0,0,1-1-1.177Zm4.823-6H3.176A1.1,1.1,0,0,1,2,6,1.1,1.1,0,0,1,3.176,5h8.647A1.1,1.1,0,0,1,13,6,1.1,1.1,0,0,1,11.823,7ZM17,7v.324A1.1,1.1,0,0,1,16,8.5a1.1,1.1,0,0,1-1-1.176V4.677A1.1,1.1,0,0,1,16,3.5a1.1,1.1,0,0,1,1,1.176V5h3.823A1.1,1.1,0,0,1,22,6a1.1,1.1,0,0,1-1.177,1Z" fill="#C91D1D"/>
<style type="text/css" media="screen">path{vector-effect:non-scaling-stroke}</style></svg>
