<svg id="_24x24-FlightsReturn" data-name="24x24-FlightsReturn" xmlns="http://www.w3.org/2000/svg" width="24" height="24" viewBox="0 0 24 24">
  <rect id="Frame24" width="24" height="24" fill="#fff" opacity="0"/>
  <path id="flight-return" d="M17.927,12.111l.086.072,2.8,2.922a.529.529,0,0,1,.066.731l-.066.06-2.8,2.922a.561.561,0,0,1-.429.182.572.572,0,0,1-.606-.5l-.007-.106V16.4H8.907a.9.9,0,0,1-.9-.787L8,15.5a.9.9,0,0,1,.793-.893l.114-.007H16.97v-1.99a.654.654,0,0,1,.184-.426A.594.594,0,0,1,17.927,12.111ZM6.846,5.183a.655.655,0,0,1,.184.426V7.6h8.063l.114.007A.9.9,0,0,1,16,8.5l-.007.113a.9.9,0,0,1-.9.787H7.03v1.992l-.007.106a.572.572,0,0,1-.606.5.561.561,0,0,1-.429-.182L3.184,8.9l-.066-.06A.529.529,0,0,1,3.184,8.1l2.8-2.922.086-.072a.594.594,0,0,1,.773.072Z" fill="#ffffff"/>
<style type="text/css" media="screen">path{vector-effect:non-scaling-stroke}</style></svg>
