<svg id="_24x24-Airplane" data-name="24x24-Airplane" xmlns="http://www.w3.org/2000/svg" width="24" height="24" viewBox="0 0 24 24">
  <rect id="Frame24" width="24" height="24" fill="#fff" opacity="0"/>
  <path id="airplane" d="M10.208,9.55q-.111-.11-2.359-2.218c-.4-.394-.708-.608-.6-.825s.242-.2,1.1-.237A1.543,1.543,0,0,1,9.667,6.6c.511.3,4.22,2.824,4.3,3s-.073.191-.167.2-2.94.054-3.138.046S10.319,9.66,10.208,9.55ZM20.67,11.9c0,.585-.773,1.357-2.409,1.35q-1.661.014-3.665,0a.609.609,0,0,0-.293.066q-4.087,3.749-4.468,4.094c-.345.311-.477.31-1.163.314s-.658,0-1.4,0c-.24,0-.6-.028-.63-.314s.386-.69.63-.959,1.994-2.144,2.621-2.811c.124-.132.147-.209.149-.249,0-.087-.06-.167-.2-.167l-4.408.023a.761.761,0,0,1-.8-.484L3.465,9.88a2.264,2.264,0,0,1-.139-.51c-.036-.219.111-.463.56-.469a1.7,1.7,0,0,1,1.16.357L6.164,10.4a.38.38,0,0,0,.311.12q10.722-.251,12.344-.032c1.622.219,1.85.827,1.85,1.412Z" transform="translate(0.029 -0.26)" fill="#ffffff"/>
<style type="text/css" media="screen">path{vector-effect:non-scaling-stroke}</style></svg>
