<svg id="_24x24-BaggageSet" data-name="24x24-BaggageSet" xmlns="http://www.w3.org/2000/svg" width="24" height="24" viewBox="0 0 24 24">
  <rect id="Frame24" width="24" height="24" fill="#fff" opacity="0"/>
  <path id="baggage-set" d="M11.417,13.623a1.611,1.611,0,0,1,1.5,1.5v4.583a1.494,1.494,0,0,1-1.5,1.5H3.5a1.494,1.494,0,0,1-1.5-1.5V15.123a1.494,1.494,0,0,1,1.5-1.5h1a2.455,2.455,0,0,1,2.5-2.5h.833a2.455,2.455,0,0,1,2.5,2.5h1.083Zm-5.25,0h2.5a.787.787,0,0,0-.833-.833H7A.787.787,0,0,0,6.167,13.623Zm13.917-6.5A1.885,1.885,0,0,1,22,9.04v10a2.043,2.043,0,0,1-1.667,2c-.083,0-.333.167-.333.25,0,.5-.333.667-.833.667s-.833-.167-.833-.667a.179.179,0,0,0-.167-.167H14a.179.179,0,0,0-.167.167c0,.5-.333.667-.833.667a.821.821,0,0,1-.667-.25,2.332,2.332,0,0,0,1.333-2.083V15.04a2.494,2.494,0,0,0-2.333-2.25H11a2.886,2.886,0,0,0-.667-1.333V9.123A2.175,2.175,0,0,1,12.417,7.04h.833a.394.394,0,0,0,.417-.417V4.207q0-.375-.5-.5a.766.766,0,0,1-.75-.833.785.785,0,0,1,.833-.833h5.833a.747.747,0,0,1,.833.833.81.81,0,0,1-.833.917.394.394,0,0,0-.417.417v2.5a.394.394,0,0,0,.417.417h1Zm-4.75-3v2.5a.394.394,0,0,0,.417.417h.833A.394.394,0,0,0,17,6.623v-2.5a.394.394,0,0,0-.417-.417H15.75a.394.394,0,0,0-.417.417Zm3.75,6.25a.667.667,0,1,0,0-1.333H13.25a.613.613,0,0,0-.667.667.657.657,0,0,0,.667.667h.25a.381.381,0,0,1,.333.417v.833a.613.613,0,0,0,.667.667.657.657,0,0,0,.667-.667V10.79a.394.394,0,0,1,.417-.417Z" transform="translate(0 0.01)" fill="#ffffff"/>
<style type="text/css" media="screen">path{vector-effect:non-scaling-stroke}</style></svg>
