<svg id="_24x24-Insurance-airplane" data-name="24x24-Insurance-airplane" xmlns="http://www.w3.org/2000/svg" width="24" height="24" viewBox="0 0 24 24">
  <rect id="Frame24" width="24" height="24" fill="#fff" opacity="0"/>
  <path id="Insurance-airplane" d="M18.707,4.482a17.84,17.84,0,0,0-7.144-1.43,17.855,17.855,0,0,0-7.147,1.43A1.877,1.877,0,0,0,3.287,6.137v5.492a9.472,9.472,0,0,0,6.4,8.953l.828.3a3.6,3.6,0,0,0,2.182,0l.828-.3a9.678,9.678,0,0,0,6.4-8.953V6.137A2.1,2.1,0,0,0,18.707,4.482ZM8.1,8.247a1.077,1.077,0,0,1,.938-.116h.007c.407.07,3.455.784,3.549.877s0,.14-.058.175-1.9.767-2.032.814a.52.52,0,0,1-.368-.078L8.043,9.064c-.358-.158-.614-.218-.6-.388S7.549,8.484,8.1,8.247Zm8.206,2.07q-1.191.468-2.386.918a.433.433,0,0,0-.175.117l-1.884,3.784c-.147.289-.233.321-.679.5s-.428.164-.914.348c-.157.06-.4.132-.489-.046s.079-.546.171-.783.763-1.894,1-2.486a.309.309,0,0,0,.035-.2.109.109,0,0,0-.13-.069l-.044.011L7.944,13.525a.531.531,0,0,1-.64-.116L5.825,11.821a1.576,1.576,0,0,1-.218-.3c-.078-.134-.043-.329.247-.445a1.191,1.191,0,0,1,.845-.058l1.014.465a.265.265,0,0,0,.233,0q6.925-2.841,8.032-3.1c1.112-.263,1.413.076,1.558.457h0C17.683,9.216,17.373,9.912,16.306,10.317Z" transform="translate(0.395 -0.051)" fill="#ffffff"/>
<style type="text/css" media="screen">path{vector-effect:non-scaling-stroke}</style></svg>
