<svg id="_24x24-Reload" data-name="24x24-Reload" xmlns="http://www.w3.org/2000/svg" width="24" height="24" viewBox="0 0 24 24">
  <rect id="Frame24" width="24" height="24" fill="#fff" opacity="0"/>
  <path id="Path_8756" data-name="Path 8756" d="M19.846,10.4a8,8,0,0,0-13.5-4.053L4.951,4.951A.5.5,0,0,0,4.1,5.29L3.972,9.437a.5.5,0,0,0,.515.515l4.147-.126a.5.5,0,0,0,.338-.854L7.581,7.581a6.25,6.25,0,1,1,.562,9.337A.861.861,0,0,0,7,17a.881.881,0,0,0,.079,1.316A8.007,8.007,0,0,0,19.846,10.4Z" transform="translate(0.014)" fill="#0b6d8e"/>
<style type="text/css" media="screen">path{vector-effect:non-scaling-stroke}</style></svg>
