<svg id="_24x24-BreakLink" data-name="24x24-BreakLink" xmlns="http://www.w3.org/2000/svg" width="24" height="24" viewBox="0 0 24 24">
  <rect id="Frame24" width="24" height="24" fill="#fff" opacity="0"/>
  <path id="Union_3" data-name="Union 3" d="M7.6,19V13.529a4.406,4.406,0,0,1,4.4-4.4.9.9,0,0,1,0,1.8,2.6,2.6,0,0,0-2.6,2.6V19a2.6,2.6,0,0,0,5.2,0V16.265a.9.9,0,1,1,1.8,0V19a4.4,4.4,0,0,1-8.8,0Zm12.793-2.1-1.726-1.208A.9.9,0,1,1,19.7,14.215l1.726,1.209a.9.9,0,0,1-.518,1.638A.884.884,0,0,1,20.392,16.9Zm-18.038-.22a.9.9,0,0,1,.22-1.254L4.3,14.215a.9.9,0,0,1,1.033,1.474L3.608,16.9a.888.888,0,0,1-.515.165A.9.9,0,0,1,2.354,16.677ZM11.1,13.971a.9.9,0,0,1,.9-.9,2.6,2.6,0,0,0,2.6-2.6V5A2.6,2.6,0,1,0,9.4,5V7.735a.9.9,0,1,1-1.8,0V5a4.4,4.4,0,0,1,8.8,0v5.47a4.4,4.4,0,0,1-4.4,4.4A.9.9,0,0,1,11.1,13.971Zm8.652-1.647a.9.9,0,1,1,0-1.8h2.107a.9.9,0,1,1,0,1.8Zm-17.609,0a.9.9,0,1,1,0-1.8H4.249a.9.9,0,1,1,0,1.8Zm16.3-3.912a.9.9,0,0,1,.221-1.254l1.726-1.209a.9.9,0,0,1,1.033,1.475L19.7,8.632a.9.9,0,0,1-1.255-.22ZM4.3,8.632,2.575,7.424A.9.9,0,0,1,3.608,5.949L5.334,7.158A.9.9,0,0,1,4.3,8.632Z" transform="translate(0 0)" fill="#0b6d8e"/>
<style type="text/css" media="screen">path{vector-effect:non-scaling-stroke}</style></svg>
