<svg id="_24x24-Ticket" data-name="24x24-Ticket" xmlns="http://www.w3.org/2000/svg" width="24" height="24" viewBox="0 0 24 24">
  <rect id="Frame24" width="24" height="24" fill="#fff" opacity="0"/>
  <path id="ticket" d="M21.333,10.772a1.25,1.25,0,0,0,0,2.45.833.833,0,0,1,.667.817v3.375a1.25,1.25,0,0,1-1.25,1.25H3.25A1.25,1.25,0,0,1,2,17.413V14.038a.833.833,0,0,1,.667-.817,1.25,1.25,0,0,0,0-2.45A.833.833,0,0,1,2,9.955V6.58A1.25,1.25,0,0,1,3.25,5.33h17.5A1.25,1.25,0,0,1,22,6.58V9.955a.833.833,0,0,1-.667.817ZM6.83,16.816a.83.83,0,1,0-.83-.83A.83.83,0,0,0,6.83,16.816Zm0-2.66a.83.83,0,1,0-.83-.83A.83.83,0,0,0,6.83,14.156Zm0-2.66a.83.83,0,1,0-.83-.83A.83.83,0,0,0,6.83,11.5Zm0-2.66A.83.83,0,1,0,6,8.006.83.83,0,0,0,6.83,8.836Zm3.5.974a.83.83,0,0,0,0,1.66h6.34a.83.83,0,0,0,0-1.66Zm0,2.66a.83.83,0,0,0,0,1.66h3.34a.83.83,0,1,0,0-1.66Z" fill="#0b6d8e"/>
<style type="text/css" media="screen">path{vector-effect:non-scaling-stroke}</style></svg>
