<svg id="_24x24-Plus-Circle" data-name="24x24-Plus-Circle" xmlns="http://www.w3.org/2000/svg" width="24" height="24" viewBox="0 0 24 24">
  <rect id="Frame24" width="24" height="24" fill="#fff" opacity="0"/>
  <path id="plus-circle" d="M12,2A10,10,0,1,1,2,12,10.029,10.029,0,0,1,12,2Zm0,4.11-.113.007a.9.9,0,0,0-.787.893V10.7a.4.4,0,0,1-.4.4H7.012a.9.9,0,0,0-.9.9l.007.113a.9.9,0,0,0,.893.787H10.7a.4.4,0,0,1,.4.4v3.688a.9.9,0,0,0,.9.9l.113-.007a.9.9,0,0,0,.787-.893V13.3a.4.4,0,0,1,.4-.4h3.688a.9.9,0,0,0,.9-.9l-.007-.113a.9.9,0,0,0-.893-.787H13.3a.4.4,0,0,1-.4-.4V7.01a.9.9,0,0,0-.9-.9Z" fill="#1D9EC9"/>
<style type="text/css" media="screen">path{vector-effect:non-scaling-stroke}</style></svg>
