<svg id="_24x24-GenderWoman" data-name="24x24-GenderWoman" xmlns="http://www.w3.org/2000/svg" width="24" height="24" viewBox="0 0 24 24">
  <rect id="Frame24" width="24" height="24" fill="#fff" opacity="0"/>
  <path id="gender-woman" d="M16.119,12.458a1.007,1.007,0,1,1-1.007-1.008A1.006,1.006,0,0,1,16.119,12.458ZM9.065,11.45a1.007,1.007,0,1,1-1.008,1.008A1.008,1.008,0,0,1,9.065,11.45Zm4.9,4.321a.781.781,0,0,1,.722.483c.007.018.014.035.02.053a.793.793,0,0,1-.5,1,6.563,6.563,0,0,1-2.086.347H12.06a6.582,6.582,0,0,1-2.086-.347.793.793,0,0,1-.5-1q.008-.027.019-.053a.781.781,0,0,1,.963-.444,5.327,5.327,0,0,0,1.632.221,5.342,5.342,0,0,0,1.633-.221.773.773,0,0,1,.24-.039ZM7.79,18.305c.117.117.246.236.387.362a5.978,5.978,0,0,0,7.336.363c.141-.1.28-.2.406-.3.03-.024.059-.05.088-.076q.206-.168.4-.353a5.628,5.628,0,0,0,.436-.476l.017-.022a5.5,5.5,0,0,0,1.011-1.952c.021-.075.043-.161.064-.247a8.617,8.617,0,0,0,.061-3.15,20.844,20.844,0,0,0-1.222-4.515,1.706,1.706,0,0,0-.75-.723,2.3,2.3,0,0,0-.34-.095,3.225,3.225,0,0,1-1.925,1.682c-.165.073-.347.124-.521.189-.037.014-.074.025-.11.04a10.245,10.245,0,0,1-4.448.529c-3.272-.331-2.66,5.013-2.239,6.379a5.651,5.651,0,0,0,.729,1.63c.091.127.187.254.3.383.083.1.176.194.274.294l.052.054ZM21.021,7.125a8.612,8.612,0,0,1,.407,3.394c-.1,1.483-.36,3.395-.407,4.561-.1,2.516.709,2.727.927,4.18S21.73,21.7,19.943,21.7s-2.581-1.248-3.263-1.488a7.4,7.4,0,0,1-7.5.95,8.99,8.99,0,0,1-1.765-1.041,22.839,22.839,0,0,1-2.239,1.35A2.118,2.118,0,0,1,2.033,20c-.307-1.559,1.652-2.965,1.332-7.556S4.387,5.925,6.117,4.235c.076-.075.175-.13.255-.2q.167-.14.344-.268a6.207,6.207,0,0,1,.778-.491q.244-.132.5-.247c.146-.064.289-.13.445-.187a9.348,9.348,0,0,1,2.725-.582c.041,0,.075-.013.117-.017q3.328-.215,4.7,1.607a2.8,2.8,0,0,1,.371.592.933.933,0,0,1,.238-.059c1.944-.538,3.422.365,4.427,2.742Z" transform="translate(0 -0.22)" fill="#1D9EC9"/>
<style type="text/css" media="screen">path{vector-effect:non-scaling-stroke}</style></svg>
