<svg id="_24x24-Meal" data-name="24x24-Meal" xmlns="http://www.w3.org/2000/svg" width="24" height="24" viewBox="0 0 24 24">
  <rect id="Frame24" width="24" height="24" fill="#fff" opacity="0"/>
  <path id="meal" d="M6.464,8.786c-.053-.107-.131-.233-.178-.317a1.975,1.975,0,0,1,.125-2.684A.833.833,0,0,1,7.589,6.962a.288.288,0,0,0-.053.333c.053.107.128.233.178.317A1.975,1.975,0,0,1,7.589,10.3.833.833,0,1,1,6.411,9.119a.288.288,0,0,0,.053-.333Zm9.822-1.173c.048-.084.126-.21.178-.317a.287.287,0,0,0-.053-.333.833.833,0,1,1,1.178-1.178,1.975,1.975,0,0,1,.125,2.684c-.05.084-.125.21-.178.317a.288.288,0,0,0,.053.333A.833.833,0,1,1,16.411,10.3a1.975,1.975,0,0,1-.125-2.684ZM11.41,8.7c.738-.738.551-.991-.078-1.831s-1.682-2.246.079-4.007a.833.833,0,1,1,1.178,1.178c-.74.744-.552,1,.077,1.833s1.681,2.244-.076,4A.834.834,0,0,1,11.41,8.7ZM4.218,16.374h0a.417.417,0,0,1-.392-.557,2.417,2.417,0,0,1,.667-.993,4.828,4.828,0,0,1,3.023-.972.833.833,0,0,0,.687-.394A4.3,4.3,0,0,1,12,11.374a4.3,4.3,0,0,1,3.8,2.087.833.833,0,0,0,.688.394,4.833,4.833,0,0,1,3.023.969,2.417,2.417,0,0,1,.667.993.417.417,0,0,1-.392.557H4.218Zm17.157,1.042a.625.625,0,0,1,0,1.25h-.844a.833.833,0,0,0-.79.567l-.471,1.4a1.258,1.258,0,0,1-1.141.744H5.871a1.242,1.242,0,0,1-1.118-.691l-.492-1.452a.833.833,0,0,0-.789-.566H2.625a.625.625,0,0,1,0-1.25h18.75Z" transform="translate(0 -1.62)" fill="#1D9EC9"/>
<style type="text/css" media="screen">path{vector-effect:non-scaling-stroke}</style></svg>
