<svg id="_24x24-Seat" data-name="24x24-Seat" xmlns="http://www.w3.org/2000/svg" width="24" height="24" viewBox="0 0 24 24">
  <rect id="Frame24" width="24" height="24" fill="#fff" opacity="0"/>
  <path id="seat" d="M19.909,11.3A1.091,1.091,0,0,1,21,12.387v4.364a1.089,1.089,0,0,1-1.091,1.091H17.254a.618.618,0,0,0-.617.619v1.258a.3.3,0,0,0,.305.305h.965a.911.911,0,0,1,0,1.823H12.093a.911.911,0,0,1,0-1.823h.964a.306.306,0,0,0,.307-.305V18.46a.619.619,0,0,0-.619-.619H10.708A1.708,1.708,0,0,1,9,16.133V12.387a1.091,1.091,0,1,1,2.182,0v2.655a.617.617,0,0,0,.617.617h6.4a.618.618,0,0,0,.619-.617V12.387A1.091,1.091,0,0,1,19.909,11.3ZM16.651,3.66a3.259,3.259,0,0,1,3.259,3.259v3.3h-.015a2.159,2.159,0,0,0-2.159,2.158v1.581a.625.625,0,0,1-.625.625H12.889a.626.626,0,0,1-.625-.625V12.372a2.159,2.159,0,0,0-2.159-2.158h-.014v-3.3A3.259,3.259,0,0,1,13.349,3.66Z" transform="translate(-3 -0.66)" fill="#1D9EC9"/>
<style type="text/css" media="screen">path{vector-effect:non-scaling-stroke}</style></svg>
