<svg id="_24x24-Edit" data-name="24x24-Edit" xmlns="http://www.w3.org/2000/svg" width="24" height="24" viewBox="0 0 24 24">
  <rect id="Frame24" width="24" height="24" fill="#fff" opacity="0"/>
  <path id="edit" d="M14.314,5.955l3.728,3.739a.377.377,0,0,1,0,.533L9.806,18.462a.377.377,0,0,1-.534,0L5.54,14.729a.377.377,0,0,1,0-.533l8.24-8.242a.376.376,0,0,1,.534,0ZM4.78,15.622l3.6,3.6a.377.377,0,0,1-.179.634L3.465,20.99a.382.382,0,0,1-.355-.1.377.377,0,0,1-.1-.354L4.147,15.8a.378.378,0,0,1,.634-.179ZM20.45,5.154a1.886,1.886,0,0,1,0,2.663L19.381,8.887a.377.377,0,0,1-.533,0L15.114,5.154a.377.377,0,0,1,0-.533l1.07-1.069a1.886,1.886,0,0,1,2.665,0l1.6,1.6Z" fill="#804600"/>
<style type="text/css" media="screen">path{vector-effect:non-scaling-stroke}</style></svg>
