<svg id="_24x24-FlightsOneway" data-name="24x24-FlightsOneway" xmlns="http://www.w3.org/2000/svg" width="24" height="24" viewBox="0 0 24 24">
  <rect id="Frame24" width="24" height="24" fill="#fff" opacity="0"/>
  <path id="flight-direct" d="M17.043,8.683a.588.588,0,0,1,.852,0L20.816,11.6a.52.52,0,0,1,0,.791l-2.922,2.922a.554.554,0,0,1-.426.182.575.575,0,0,1-.609-.609V12.9H3.9a.9.9,0,0,1-.893-.787L3,12a.9.9,0,0,1,.9-.9H16.86V9.109a.535.535,0,0,1,.117-.353Z" fill="#804600"/>
<style type="text/css" media="screen">path{vector-effect:non-scaling-stroke}</style></svg>
