<svg id="_24x24-Remove" data-name="24x24-Remove" xmlns="http://www.w3.org/2000/svg" width="24" height="24" viewBox="0 0 24 24">
  <rect id="Frame24" width="24" height="24" fill="#fff" opacity="0"/>
  <path id="remove" d="M14.659,18.773V11.409a.614.614,0,1,0-1.227,0v7.364a.614.614,0,1,0,1.227,0Zm-4.091,0V11.409a.614.614,0,0,0-1.227,0v7.364a.614.614,0,1,0,1.227,0ZM18.136,8.136a.409.409,0,0,1,.409.409V20a1.637,1.637,0,0,1-1.636,1.636H7.091A1.637,1.637,0,0,1,5.455,20V8.545a.409.409,0,0,1,.409-.409H18.136ZM9.545,5.068a.2.2,0,0,0,.2.2h4.5a.2.2,0,0,0,.2-.2V4.045a.409.409,0,0,0-.409-.409H9.955a.409.409,0,0,0-.409.409V5.068Zm10.636.2a.818.818,0,0,1,0,1.637H3.818a.818.818,0,0,1,0-1.637H7.7a.2.2,0,0,0,.2-.2V4.045A2.045,2.045,0,0,1,9.955,2h4.091a2.045,2.045,0,0,1,2.045,2.045V5.068a.2.2,0,0,0,.2.2h3.886Z" transform="translate(0 0.2)" fill="#804600"/>
<style type="text/css" media="screen">path{vector-effect:non-scaling-stroke}</style></svg>
