<svg id="_24x24-Passenger" data-name="24x24-Passenger" xmlns="http://www.w3.org/2000/svg" width="24" height="24" viewBox="0 0 24 24">
  <rect id="Frame24" width="24" height="24" fill="#fff" opacity="0"/>
  <path id="passenger" d="M21.083,17.577c-.583-1.25-2.667-2-5.583-3.083-.583-.167-.917-.25-1.083-.751a1.3,1.3,0,0,1,.166-1.333,7.78,7.78,0,0,0,1.751-5.5A4.193,4.193,0,0,0,12,2.41,4.218,4.218,0,0,0,7.666,6.993a8.182,8.182,0,0,0,1.667,5.5A1.532,1.532,0,0,1,9.5,13.827c-.167.417-.5.5-1.083.749-2.917,1.084-5,1.834-5.583,3.084A8.313,8.313,0,0,0,2,21.16a.394.394,0,0,0,.417.417H21.583A.394.394,0,0,0,22,21.16a7.9,7.9,0,0,0-.917-3.583" transform="translate(0 -0.41)" fill="#804600"/>
<style type="text/css" media="screen">path{vector-effect:non-scaling-stroke}</style></svg>
