<svg id="_24x24-Plus" data-name="24x24-Plus" xmlns="http://www.w3.org/2000/svg" width="24" height="24" viewBox="0 0 24 24">
  <rect id="Frame24" width="24" height="24" fill="#fff" opacity="0"/>
  <path id="plus" d="M12,5.11a.9.9,0,0,1,.9.9V10.7a.4.4,0,0,0,.4.4h4.688a.9.9,0,0,1,.893.787l.007.113a.9.9,0,0,1-.9.9H13.3a.4.4,0,0,0-.4.4v4.688a.9.9,0,0,1-.787.893L12,18.886a.9.9,0,0,1-.9-.9V13.3a.4.4,0,0,0-.4-.4H6.012a.9.9,0,0,1-.893-.787L5.112,12a.9.9,0,0,1,.9-.9H10.7a.4.4,0,0,0,.4-.4V6.01a.9.9,0,0,1,.787-.893Z" transform="translate(-0.013 -0.01)" fill="#804600"/>
<style type="text/css" media="screen">path{vector-effect:non-scaling-stroke}</style></svg>
