<svg xmlns="http://www.w3.org/2000/svg" xmlns:xlink="http://www.w3.org/1999/xlink" width="16.834" height="16" viewBox="0 0 16.834 16"><defs><style>.a{fill:none;}.b{fill:#bfccd9;}.c{clip-path:url(#a);}.d{fill:#fff;}</style><clipPath id="a"><rect class="a" width="15.251" height="16"/></clipPath></defs><path class="b" d="M2.417,0h12V16h-12L3.935,8.056Z" transform="translate(2.417)"/><g transform="translate(0 0)"><g class="c" transform="translate(0 0)"><path class="d" d="M15.252,8c0,.795-.746,1.266-1.933,1.266H10.06a.832.832,0,0,0-.711.4L6.1,15.6a.709.709,0,0,1-.634.4H4.953a.738.738,0,0,1-.77-.707.747.747,0,0,1,.059-.324l1.743-5.15a.422.422,0,0,0-.268-.533.438.438,0,0,0-.127-.021H2.929a.944.944,0,0,0-.711.4l-.953,1.506c-.158.316-.414.526-.6.424a.39.39,0,0,1-.268-.281,17.092,17.092,0,0,1,.38-2.369l.01-.067Q0,8.542,0,8t.778-.868L.767,7.06A17.066,17.066,0,0,1,.389,4.691a.385.385,0,0,1,.267-.28c.187-.1.444.106.6.423l.95,1.506a.712.712,0,0,0,.638.4h2.66a.431.431,0,0,0,.414-.449A.394.394,0,0,0,5.9,6.182L4.16,1.03A.74.74,0,0,1,4.871,0h.512a.833.833,0,0,1,.711.4L9.343,6.338a.829.829,0,0,0,.71.4h3.18c1.029,0,2.01.47,2.01,1.266Z" transform="translate(0 0)"/></g></g></svg>