<svg xmlns="http://www.w3.org/2000/svg" xmlns:xlink="http://www.w3.org/1999/xlink" width="528" height="846.266" viewBox="0 0 528 846.266">
  <defs>
    <linearGradient id="linear-gradient" x1="1" y1="1.044" x2="0" y2="1.044" gradientUnits="objectBoundingBox">
      <stop offset="0" stop-color="#fff"/>
      <stop offset="0.833" stop-color="#e7eef3"/>
      <stop offset="1" stop-color="#fff"/>
    </linearGradient>
  </defs>
  <g id="Head" transform="translate(-0.824 -0.809)">
    <path id="Path_9006" data-name="Path 9006" d="M522.936,604.781c-3.36-76.138-11.152-146.416-18.162-205.2s-27.031-130.553-58.956-215.456S381.84,39.369,372.123,21.283H156.392c-9.717,18.086-41.78,77.943-73.7,162.845S30.746,340.8,23.735,399.584s-14.8,129.059-18.157,205.2S.255,767.417.255,767.417h528S526.291,680.924,522.936,604.781Z" transform="translate(0.569 79.658)" fill="url(#linear-gradient)"/>
    <path id="Path_9007" data-name="Path 9007" d="M202.136,29.981C173.481.236,147.46.25,140.879.25S108.287.236,79.631,29.981c-28.208,29.278-46.613,70.4-46.613,70.4H248.744S230.344,59.259,202.136,29.981Z" transform="translate(123.944 0.559)" fill="#e7eef3"/>
    <path id="Union_21" data-name="Union 21" d="M389.7,253.333l-15.719-16.11-7.054-19.081-5.92-15.483-9.412-23.393,51.714.034,10.559,29.13,9.25,27.276,6.315,20.159ZM6.312,235.706l9.247-27.276L26.124,179.3l51.706-.034-9.41,23.393-5.912,15.483-7.055,19.081-15.719,16.11L0,255.865Zm342.456-63.078-3.177-7.151-6.166-12.62-6.75-12.472-5.2-8.548-3.016-4.266L340.98,73.645l7,7.493L354.09,88.9l10.444,14.508,6.629,9.986,10.486,17.114,3.538,6.285a149.853,149.853,0,0,1,8.867,18.653l6.755,17.205ZM35.385,155.445a148.2,148.2,0,0,1,8.86-18.653l3.545-6.285,10.471-17.114,6.636-9.986L75.341,88.9l6.109-7.762,7-7.493,16.517,53.925-3.011,4.266-5.191,8.548-6.756,12.472-6.159,12.62-3.183,7.151-52.041.023ZM298.15,111.688,255.933,86.716,226,68.986l-8.644-4.762V0l24.226,13.9,69.068,40.82,23.515,14.262-15.686,55.185ZM95.265,68.986l23.52-14.262L187.852,13.9,212.076,0V64.224l-8.642,4.762-29.949,17.73-42.21,24.972-20.318,12.483Z" transform="translate(50.112 178.683)" fill="#9eb3c9" stroke="rgba(0,0,0,0)" stroke-miterlimit="10" stroke-width="1"/>
  </g>
</svg>
