<svg xmlns="http://www.w3.org/2000/svg" width="33" height="33" viewBox="0 0 33 33">
  <g id="_32x32-Logo-BA" data-name="32x32-Logo-BA" transform="translate(0.5 0.5)">
    <rect id="Container32" width="32" height="32" rx="6" fill="transparent" stroke-miterlimit="10" stroke-width="1"/>
    <g id="Bamboo_Airways" data-name="Bamboo Airways" transform="translate(4 6)">
      <path id="Path_8135" data-name="Path 8135" d="M60.835,236.853c-.077,0-.154,0-.231-.011-.3-.024-.372-.127-.116-.34a.147.147,0,0,0,.142-.15h0l.077-.082,0,0,.079-.082,0,0c.172.033.257-.111.356-.2a19.188,19.188,0,0,1,4.711-3.025l.772-.363c.711-.282,1.422-.559,2.146-.811s1.471-.421,2.192-.675a.978.978,0,0,0,.548-.13l1.943-.406a3.222,3.222,0,0,0,.847-.15c.638-.083,1.276-.172,1.915-.248a17.985,17.985,0,0,1,2.391-.065,6.119,6.119,0,0,1-2.613,3.165,20.349,20.349,0,0,1-5.189,2,49.234,49.234,0,0,1-7.347,1.311A20.873,20.873,0,0,0,60.835,236.853Z" transform="translate(-60.334 -217.887)" fill="#01548c"/>
      <path id="Path_8136" data-name="Path 8136" d="M76.116,232.3a17.98,17.98,0,0,0-2.391.065c-.639.076-1.277.165-1.915.248-.055-3.118-.106-6.236-.172-9.354a.8.8,0,0,1,.288-.672c.656-.584,1.288-1.2,1.954-1.768a3.969,3.969,0,0,1,1.93-.612c.161-.034.126.128.131.221.023.568.051,1.136.061,1.7q.086,5.046.165,10.092Z" transform="translate(-57.849 -220.066)" fill="#66af54"/>
      <path id="Path_8137" data-name="Path 8137" d="M69.825,232.7c-.721.254-1.469.423-2.192.675s-1.435.529-2.146.811c.077-1.264.155-2.527.227-3.791a.6.6,0,0,1,.159-.383c2.048-2.357,4.056-4.75,6.288-6.94.052-.051.113-.094.155-.128v9.219l-1.943.406v-7.244l-.015-.006Z" transform="translate(-59.201 -219.464)" fill="#66af54"/>
      <path id="Path_8138" data-name="Path 8138" d="M78.51,230.138l.05-.077c.876.054,1.753.088,2.626.165a18.428,18.428,0,0,1,3.057.528c-.65.447-1.217.853-1.8,1.232a30.535,30.535,0,0,1-6.341,3.178,33.995,33.995,0,0,1-13,1.965c-.721-.015-1.441-.107-2.161-.165-.078-.006-.156-.017-.2-.1a20.884,20.884,0,0,1,2.616-.254,49.238,49.238,0,0,0,7.347-1.311,20.35,20.35,0,0,0,5.189-2A6.119,6.119,0,0,0,78.51,230.138Z" transform="translate(-60.244 -217.899)" fill="#4dbdeb"/>
      <path id="Path_8139" data-name="Path 8139" d="M75.684,230.591c.1-3.323.2-6.644.284-9.967.01-.372.107-.539.5-.522.426.017.853-.012,1.28-.011s.579.188.522.646a15.949,15.949,0,0,1-.45,2c-.65,2.536-1.236,5.088-2.005,7.592-.029.094-.061.188-.093.282Z" transform="translate(-56.96 -220.091)" fill="#68b057"/>
      <path id="Path_8140" data-name="Path 8140" d="M65.767,232.929a19.189,19.189,0,0,0-4.711,3.025c-.1.087-.184.231-.356.2a7.812,7.812,0,0,1,.888-1.115q1.764-2.207,3.544-4.4a.772.772,0,0,1,.339-.311Z" transform="translate(-60.253 -217.842)" fill="#68b057"/>
    </g>
  </g>
</svg>
