<svg xmlns="http://www.w3.org/2000/svg" width="33" height="33" viewBox="0 0 33 33">
  <g id="_32x32-Logo-VJA" data-name="32x32-Logo-VJA" transform="translate(0.5 0.5)">
    <rect id="Container32" width="32" height="32" rx="6" fill="#e5332b" stroke="rgba(0,0,0,0)" stroke-miterlimit="10" stroke-width="1"/>
    <path id="Vietjet_Air" data-name="Vietjet Air" d="M-8220.346-2488.09v-.971h-1.314l-.58.971h-.945l2.616-4.367h1.018l.166,4.367Zm-1-1.592h1v-1.782Zm8.652.577a.86.86,0,0,1-.541-.639,1.745,1.745,0,0,1,.177-1.012,1.864,1.864,0,0,1,.5-.7,1.036,1.036,0,0,1,.674-.247,1.353,1.353,0,0,1,.413.07.775.775,0,0,1,.487.431,1.682,1.682,0,0,1-.107,1.312,1.268,1.268,0,0,1-1.17.858A1.44,1.44,0,0,1-8212.7-2489.1Zm.453-1.912a1.574,1.574,0,0,0-.227.618,1.864,1.864,0,0,0-.047.606.267.267,0,0,0,.238.244h0a.458.458,0,0,0,.368-.191,1.345,1.345,0,0,0,.23-.59c.072-.4.1-.7,0-.832a.208.208,0,0,0-.166-.073h-.013A.464.464,0,0,0-8212.243-2491.017Zm-5.585,1.965.666-3.2a2.78,2.78,0,0,1,1.754-.262l-.227.674a1.363,1.363,0,0,0-.653,0l-.576,2.788Zm-1.418-.009.7-3.4h.972l-.7,3.4Zm4.93-.067c-.64-.244-.562-1.054-.467-1.425a1.732,1.732,0,0,1,.5-.883,1.1,1.1,0,0,1,.935-.233,1,1,0,0,1,.437.175l-.239.373c-.56-.3-.929.53-.963.777-.111.794.328.857.666.639l.063.439a1.039,1.039,0,0,1-.6.191A1.033,1.033,0,0,1-8214.316-2489.127Zm3.325.045c-.021,0,.5-2.393.5-2.393a2.3,2.3,0,0,1,.937-.2,1.242,1.242,0,0,1,.865.258,2.48,2.48,0,0,1,.928-.258c.537,0,.853.436.741.777l-.368,1.815h-.736l.368-1.762a.262.262,0,0,0-.118-.351.265.265,0,0,0-.09-.026.475.475,0,0,0-.444.143l-.413,2h-.732l.373-1.8c.028-.077.036-.293-.258-.342a.615.615,0,0,0-.39.058l-.422,2.082Zm-4.675-.1a.3.3,0,0,1-.047-.417.3.3,0,0,1,.38-.072.32.32,0,0,1,.085.443.3.3,0,0,1-.232.112A.3.3,0,0,1-8215.666-2489.181Zm-7.151-3.254a.957.957,0,0,1-.666-1.012,1.63,1.63,0,0,0,.914.346,1.22,1.22,0,0,0,1.146-.959l.668-3.125h.938l-.647,3.259a1.915,1.915,0,0,1-1.777,1.586A1.84,1.84,0,0,1-8222.817-2492.435Zm-7.733-.414-.45-4.345h.971l.166,2.982,1.385-2.982h1.019l-2.214,4.345Zm10.7-2.32a2,2,0,0,1,1.89-2.1h0c1.812.035.992,2.1.992,2.1h-1.986a.618.618,0,0,0,.456.746.615.615,0,0,0,.23.011,1.592,1.592,0,0,0,.888-.177l.106.568a2.205,2.205,0,0,1-.971.26C-8219.237-2493.76-8219.862-2494.056-8219.851-2495.168Zm1.073-1.037a4.088,4.088,0,0,0-.138.4h1.19c.047-.124.265-.888-.32-.888h-.021A.761.761,0,0,0-8218.777-2496.206Zm-7.607,1.037a2,2,0,0,1,1.89-2.1h0c1.812.035.992,2.1.992,2.1h-1.986a.619.619,0,0,0,.455.746.621.621,0,0,0,.231.011,1.6,1.6,0,0,0,.889-.177l.106.568a2.21,2.21,0,0,1-.972.26C-8225.771-2493.76-8226.4-2494.056-8226.385-2495.168Zm1.074-1.037a3.625,3.625,0,0,0-.138.4h1.189c.048-.124.265-.888-.32-.888h-.021A.759.759,0,0,0-8225.311-2496.206Zm9.146,2.423a.681.681,0,0,1-.515-.786l.658-3.126a.769.769,0,0,1,.461-.262,1.314,1.314,0,0,1,.6-.015l-.187.8h.5l-.116.613-.555.013-.346,1.746c-.013.063-.1.551.509.382a.955.955,0,0,1-.823.659A.939.939,0,0,1-8216.165-2493.783Zm-6.552,0a.681.681,0,0,1-.515-.786l.658-3.126a.765.765,0,0,1,.461-.262,1.31,1.31,0,0,1,.6-.015l-.187.8h.5l-.115.613-.555.013-.346,1.746c-.013.063-.1.551.509.382a.957.957,0,0,1-.823.659A.932.932,0,0,1-8222.717-2493.783Zm-5.3,0,.7-3.4h.972l-.7,3.4Z" transform="translate(8235 2509)" fill="#fff" stroke="rgba(0,0,0,0)" stroke-miterlimit="10" stroke-width="1"/>
  </g>
</svg>
