<svg id="_32x32-Logo-VNA" data-name="32x32-Logo-VNA" xmlns="http://www.w3.org/2000/svg" width="32" height="32" viewBox="0 0 32 32">
  <rect id="Container32" width="32" height="32" rx="6" fill="#015878"/>
  <path id="Vietnam_Airlines_logomark" data-name="Vietnam Airlines logomark" d="M12,13.064a7.641,7.641,0,0,1-4.687,1.389c-2.511,0-5.194-1.285-6.034-1.261a1.6,1.6,0,0,0-.72.13c-.352.147-.694-.069-.5-.43A4.819,4.819,0,0,1,2.9,10.555c.775-.234,1.483-.312,1.849.1A6.512,6.512,0,0,0,8.429,12.8c.114.011.629.055.635-.091,0-.089-.17-.147-.348-.16-1.447-.105-4.058-1.654-5.491-4.654-.538-1.126-.964-2.217-1.9-2.693-.207-.1-.214-.483.223-.587a7.423,7.423,0,0,1,4.433.9c1.011.533,1.154,1.01,1.157,1.426-.009,3.144,1.58,4.392,2.2,4.761.344.206.664.292.7.185.028-.09-.063-.151-.141-.2A5.148,5.148,0,0,1,7.461,6.933,12.72,12.72,0,0,1,8.582,2.316a2.99,2.99,0,0,0,.1-1.639C8.544.152,8.659,0,8.935,0c.3,0,.7.489.839.657a7.893,7.893,0,0,1,.99,1.6,10.661,10.661,0,0,1,1.059,4.514c0,1.492-.384,1.664-1.011,1.974s-.923.708-.924,1.17a1.221,1.221,0,0,0,.924,1.144c.461.136.754.084.729-.035-.019-.1-.223-.118-.283-.134-.626-.17-1.043-.492-1.043-.974,0-.6.742-1.042,1.785-1.042s1.785.441,1.785,1.042c0,.483-.417.8-1.042.974-.06.016-.264.039-.283.134-.024.12.269.171.729.035a1.221,1.221,0,0,0,.924-1.144c0-.462-.3-.861-.924-1.17s-1.012-.482-1.012-1.973a10.665,10.665,0,0,1,1.058-4.514,8,8,0,0,1,.99-1.6c.136-.168.538-.657.839-.657.276,0,.391.152.25.676a2.994,2.994,0,0,0,.1,1.639,12.715,12.715,0,0,1,1.122,4.618,5.151,5.151,0,0,1-2.426,4.753c-.079.047-.169.109-.141.2.034.108.353.021.7-.185.616-.369,2.206-1.617,2.2-4.761,0-.417.146-.894,1.157-1.427a7.431,7.431,0,0,1,4.433-.9c.436.1.429.488.222.587-.938.476-1.364,1.567-1.9,2.693-1.434,3-4.043,4.549-5.491,4.654-.179.013-.354.071-.348.161.006.145.521.1.636.09a6.514,6.514,0,0,0,3.682-2.147c.366-.406,1.073-.329,1.849-.094a4.812,4.812,0,0,1,2.842,2.338c.191.361-.151.576-.5.429a1.612,1.612,0,0,0-.72-.13c-.841-.024-3.523,1.262-6.035,1.261A7.636,7.636,0,0,1,12,13.064" transform="translate(4 9)" fill="#cfa153" fill-rule="evenodd"/>
</svg>
