<svg xmlns="http://www.w3.org/2000/svg" width="33" height="33" viewBox="0 0 33 33">
  <g id="_32x32-Logo-JS" data-name="32x32-Logo-JS" transform="translate(0.5 0.5)">
    <rect id="Container32" width="32" height="32" rx="6" fill="#ff5115" stroke="rgba(0,0,0,0)" stroke-miterlimit="10" stroke-width="1"/>
    <g id="Jetstar" transform="translate(4 12)">
      <path id="Jet" d="M8.14,7.149A2.694,2.694,0,0,1,5.212,4.3,2.81,2.81,0,0,1,8.106,1.481C10,1.486,10.987,2.9,10.9,4.875l-3.933,0a1.109,1.109,0,0,0,1.2,1.091,1.048,1.048,0,0,0,1-.587l1.641,0A2.535,2.535,0,0,1,8.146,7.149ZM6.968,3.761l2.178,0A1.086,1.086,0,0,0,8.1,2.668,1.157,1.157,0,0,0,6.968,3.761Zm-4.46,3.31C.8,7.069,0,6.211,0,4.372c0,0,0-.163,0-.249l1.665,0c0,.115,0,.609,0,.609a.746.746,0,0,0,.814.827c.521,0,.764-.327.765-1.031,0,0,.005-4.392.005-4.531L5.026,0c0,.139-.006,4.655-.006,4.655,0,1.624-.822,2.414-2.507,2.414ZM11.5,5.16l0-2.384-.887,0V1.639l.888,0,0-1.629,1.773,0V1.643h1.065V2.779l-1.066,0,0,2.938h1.066V7c-.321.01-.64.051-.96.051C11.875,7.05,11.494,6.616,11.5,5.16Z" transform="translate(-0.001 0.873)" fill="#191717" stroke="rgba(0,0,0,0)" stroke-miterlimit="10" stroke-width="1"/>
      <path id="Star" d="M77.465-424.079l.153,2.527,3.5,0-3.357,2.221.74,3.651-2.85-2.472-3.833,1.982,2.287-3.132-2.162-2.261,3.5,0,2.013-2.525" transform="translate(-57.123 424.079)" fill="#fff"/>
    </g>
  </g>
</svg>
