<svg id="_24x24-Close-Circle" data-name="24x24-Close-Circle" xmlns="http://www.w3.org/2000/svg" width="24" height="24" viewBox="0 0 24 24">
  <rect id="Frame24" width="24" height="24" fill="#5a7087" opacity="0"/>
  <path id="close-circle" d="M12,2A10,10,0,1,1,2,12,10.029,10.029,0,0,1,12,2Zm4.656,5.333a.9.9,0,0,0-1.273,0l-3.1,3.105-.063.052a.4.4,0,0,1-.5-.052l-3.1-3.105a.9.9,0,0,0-1.273,0l-.081.092a.9.9,0,0,0,.079,1.181l3.1,3.108a.4.4,0,0,1,0,.565l-3.1,3.109A.9.9,0,0,0,8.617,16.66l3.1-3.107a.4.4,0,0,1,.566,0l3.1,3.107a.9.9,0,0,0,1.273,0l.081-.092a.9.9,0,0,0-.08-1.181l-3.1-3.109a.4.4,0,0,1,0-.565l3.1-3.109a.9.9,0,0,0,0-1.273Z" transform="translate(0 0)" fill="#005993"/>
<style type="text/css" media="screen">path{vector-effect:non-scaling-stroke}</style></svg>
