<svg id="_24x24-Infant" data-name="24x24-Infant" xmlns="http://www.w3.org/2000/svg" width="24" height="24" viewBox="0 0 24 24">
  <rect id="Frame24" width="24" height="24" fill="#fff" opacity="0"/>
  <path id="infant" d="M4.059,14.35c2.547,4.241,6.785,6.494,12.658,6.751l-.048.025a10.184,10.184,0,0,1-4.67.969c-5.619,0-8.082-3.017-7.941-7.745ZM20,14.129a6.937,6.937,0,0,1-1.894,6h-.112a21.647,21.647,0,0,1-4.506-.418A12.771,12.771,0,0,0,20,14.108a.14.14,0,0,0,0,.021ZM12.425,1.91a7.741,7.741,0,0,1,1.185.126,8.444,8.444,0,0,1,6.2,5.3,2.611,2.611,0,0,1,1.324.6A2.763,2.763,0,0,1,22,10.123a2.455,2.455,0,0,1-.742,1.85,2.793,2.793,0,0,1-1.323.672l-.144.028a.457.457,0,0,0-.279.248A11.958,11.958,0,0,1,11.859,19.2l-.129.036A12.177,12.177,0,0,1,4.5,13.091a.481.481,0,0,0-.312-.272h0a2.443,2.443,0,0,1-2.112-1.967,2.8,2.8,0,0,1,.517-2.428,2.933,2.933,0,0,1,1.639-.982,8.6,8.6,0,0,1,3.636-4.4,9.425,9.425,0,0,1,4.156-1.137ZM12.3,3.681a7.58,7.58,0,0,0-3.616.937C6.606,5.7,5.734,8.483,5.726,8.511a.888.888,0,0,1-.847.628,1.26,1.26,0,0,0-.916.407,1.094,1.094,0,0,0-.152.954c.131.647.852.61,1.07.583a.943.943,0,0,1,.11-.007.892.892,0,0,1,.886.773A5.326,5.326,0,0,0,8.654,15.6a.908.908,0,0,1,.107.061,6.434,6.434,0,0,0,3.413.906h.093a6.368,6.368,0,0,0,3.5-1.318,6.34,6.34,0,0,0,2.452-3.545.883.883,0,0,1,.922-.745,1.442,1.442,0,0,0,.906-.277.705.705,0,0,0,.186-.561,1.117,1.117,0,0,0-.261-.848,1.119,1.119,0,0,0-.742-.2.9.9,0,0,1-.969-.706,6.525,6.525,0,0,0-3.5-4.114,3.362,3.362,0,0,1-.059,1.01,2.463,2.463,0,0,1-2.5,2.073,2.529,2.529,0,0,1-.454-.04.885.885,0,0,1,.311-1.744.722.722,0,0,0,.911-.644,1.115,1.115,0,0,0-.084-.846,1.075,1.075,0,0,0-.576-.381Zm-.308,8.877c1.038,0,1.857.065,1.857,1.121,0,1.1-.87,1.592-1.975,1.592S9.85,14.783,9.85,13.679c0-1.057.819-1.118,1.857-1.121h.286Zm-2.8-2.725a1.1,1.1,0,1,1-1.1,1.1A1.1,1.1,0,0,1,9.192,9.833Zm5.376,0a1.1,1.1,0,1,1-1.1,1.1A1.1,1.1,0,0,1,14.569,9.833Z" transform="translate(0 0.09)" fill="#005993"/>
<style type="text/css" media="screen">path{vector-effect:non-scaling-stroke}</style></svg>
