<svg id="_24x24-BaggageChecked" data-name="24x24-BaggageChecked" xmlns="http://www.w3.org/2000/svg" width="24" height="24" viewBox="0 0 24 24">
  <rect id="Frame24" width="24" height="24" fill="#fff" opacity="0"/>
  <path id="baggage-checked" d="M19.083,7A2.953,2.953,0,0,1,22,9.913v8.333a2.953,2.953,0,0,1-2.917,2.917.394.394,0,0,1-.417-.417V7.413A.394.394,0,0,1,19.083,7Zm-13.75.417V20.747a.394.394,0,0,1-.417.417A2.953,2.953,0,0,1,2,18.247V9.913A2.953,2.953,0,0,1,4.917,7,.394.394,0,0,1,5.333,7.413ZM9.667,5.33V6.58a.467.467,0,0,0,.5.417h3.75a.394.394,0,0,0,.417-.417V5.33A.787.787,0,0,0,13.5,4.5H10.583a.856.856,0,0,0-.917.833ZM7,20.747V7.413A.394.394,0,0,1,7.417,7h.167A.394.394,0,0,0,8,6.58V5.33a2.455,2.455,0,0,1,2.5-2.5h2.917a2.455,2.455,0,0,1,2.5,2.5V6.58c.083.25.25.417.417.417H16.5c.333,0,.5.167.5.417V20.747a.394.394,0,0,1-.417.417H7.417A.394.394,0,0,1,7,20.747Z" transform="translate(0 0.02)" fill="#005993"/>
<style type="text/css" media="screen">path{vector-effect:non-scaling-stroke}</style></svg>
