<svg id="_24x24-AirplaneDown" data-name="24x24-AirplaneDown" xmlns="http://www.w3.org/2000/svg" width="24" height="24" viewBox="0 0 24 24">
  <rect id="Frame24" width="24" height="24" fill="#fff" opacity="0"/>
  <path id="airplane-down" d="M12,20.578c-.894,0-1.424-.837-1.424-2.174V14.738a.936.936,0,0,0-.446-.8L3.446,10.281A.8.8,0,0,1,3,9.568V8.993a.832.832,0,0,1,1.159-.8l5.794,1.961a.475.475,0,0,0,.624-.446V6.714a1.064,1.064,0,0,0-.446-.8L8.437,4.842c-.356-.178-.592-.466-.476-.677a.431.431,0,0,1,.315-.3,19.126,19.126,0,0,1,2.665.425l.075.011Q11.39,3.42,12,3.42t.976.875l.081-.012a19.132,19.132,0,0,1,2.665-.425.432.432,0,0,1,.315.3c.116.21-.119.5-.476.677l-1.694,1.07a.8.8,0,0,0-.446.717V9.616a.486.486,0,0,0,.624.446L19.841,8.1A.832.832,0,0,1,21,8.9v.576a.936.936,0,0,1-.446.8l-6.685,3.654a.936.936,0,0,0-.446.8v3.577c0,1.159-.529,2.263-1.424,2.263Z" transform="translate(0 -0.02)" fill="#005993"/>
<style type="text/css" media="screen">path{vector-effect:non-scaling-stroke}</style></svg>
