<svg id="_24x24-Passengers" data-name="24x24-Passengers" xmlns="http://www.w3.org/2000/svg" width="24" height="24" viewBox="0 0 24 24">
  <rect id="Frame24" width="24" height="24" fill="#fff" opacity="0"/>
  <path id="passengers" d="M18.746,15.68C20.271,16.221,22,16.837,22,19.318V20a.4.4,0,0,1-.4.4H18.59a.2.2,0,0,1-.2-.226A1.271,1.271,0,0,0,18.4,20V18.8c0-3.682-2.533-4.875-4.48-5.6a.2.2,0,0,1-.114-.107,4.08,4.08,0,0,1-.206-.59.2.2,0,0,1,.034-.174A6.952,6.952,0,0,0,14.99,8.055a.2.2,0,0,1,.118-.177A3.172,3.172,0,0,1,16.4,7.6a2.929,2.929,0,0,1,3,3.184,4.494,4.494,0,0,1-1.172,3.45,2.052,2.052,0,0,0-.046,1.04.471.471,0,0,0,.11.246ZM17.2,18.8V20a.4.4,0,0,1-.4.4H3.2a.4.4,0,0,1-.4-.4V18.8c0-3.168,2.211-3.95,4.16-4.64.2-.072.408-.145.61-.219.054-.022.133-.116.194-.32a2.669,2.669,0,0,0-.067-1.566A5.7,5.7,0,0,1,6.2,7.636,3.713,3.713,0,0,1,10,3.6a3.713,3.713,0,0,1,3.8,4.034,5.7,5.7,0,0,1-1.5,4.429,2.686,2.686,0,0,0-.065,1.56c.061.206.14.3.194.32l.591.213C14.982,14.852,17.2,15.642,17.2,18.8Z" transform="translate(-0.797 0.401)" fill="#005993"/>
<style type="text/css" media="screen">path{vector-effect:non-scaling-stroke}</style></svg>
