<svg id="_24x24-Sort" data-name="24x24-Sort" xmlns="http://www.w3.org/2000/svg" width="24" height="24" viewBox="0 0 24 24">
  <rect id="Frame24" width="24" height="24" fill="#fff" opacity="0"/>
  <path id="sort" d="M6.238,16.584a.179.179,0,0,0,.167.167H7.988a.833.833,0,0,1,.583,1.416L5.988,20.751a.807.807,0,0,1-1.167,0L2.238,18.166a.833.833,0,0,1,.583-1.416H4.4a.179.179,0,0,0,.167-.167V7.416A.179.179,0,0,0,4.4,7.25H2.821a.833.833,0,0,1-.583-1.416L4.821,3.249a.807.807,0,0,1,1.167,0L8.571,5.834A.833.833,0,0,1,7.988,7.25H6.4a.179.179,0,0,0-.167.167v9.168ZM11.5,8.007a1,1,0,0,1,0-2H21a1,1,0,0,1,0,2Zm6.5,3a1,1,0,0,1,0,2H11.5a1,1,0,0,1,0-2Zm-3,5a1,1,0,0,1,0,2H11.5a1,1,0,0,1,0-2Z" transform="translate(0 0)" fill="#005993"/>
<style type="text/css" media="screen">path{vector-effect:non-scaling-stroke}</style></svg>
