<svg xmlns="http://www.w3.org/2000/svg" width="94.909" height="77.224" viewBox="0 0 94.909 77.224">
  <g id="worldwide" transform="translate(0.272 -47.683)">
    <g id="Group_6658" data-name="Group 6658" transform="translate(32.413 47.948)">
      <g id="Group_6657" data-name="Group 6657">
        <path id="Path_7669" data-name="Path 7669" d="M226.566,59.2a38.3,38.3,0,0,0-48.925-4.431,1.844,1.844,0,0,0,2.1,3.031,34.519,34.519,0,0,1,11.384-5.148,23.862,23.862,0,0,0-2.085,3.067c-2.641,4.572-4.6,10.825-5.674,18.084a1.844,1.844,0,0,0,3.648.538c.225-1.521.494-3,.8-4.434H211.1a77.431,77.431,0,0,1,1.628,14.564h-5.163a1.843,1.843,0,0,0,0,3.687h5.163a77.431,77.431,0,0,1-1.628,14.564h-9.124a1.843,1.843,0,1,0,0,3.687h8.207a46.013,46.013,0,0,1-1.727,5.01c-2.336,5.634-5.328,9.036-8.306,9.5q-.686.015-1.372,0c-5.2-.783-10.133-10.463-11.9-23.6a1.843,1.843,0,0,0-3.654.491c1.008,7.509,2.956,14,5.634,18.774a24.409,24.409,0,0,0,2.225,3.336,34.148,34.148,0,0,1-12.314-5.8,1.843,1.843,0,1,0-2.2,2.956,38.3,38.3,0,0,0,22.885,7.574h.006q1.311,0,2.627-.09A38.345,38.345,0,0,0,226.566,59.2Zm7.495,25.271H216.412A81.971,81.971,0,0,0,214.86,69.9H230A34.4,34.4,0,0,1,234.061,84.468ZM188.735,66.218a38.706,38.706,0,0,1,3.5-8.657c2.2-3.809,4.764-5.907,7.219-5.907,3.2,0,6.481,3.482,9,9.554a46.008,46.008,0,0,1,1.727,5.01ZM211.857,59.8a29.015,29.015,0,0,0-4.077-7.14A34.615,34.615,0,0,1,223.959,61.8a35.1,35.1,0,0,1,3.739,4.413H214A50.815,50.815,0,0,0,211.857,59.8Zm12.1,51.023a34.438,34.438,0,0,1-16.118,9.075,29.17,29.17,0,0,0,4.017-7.065A50.824,50.824,0,0,0,214,106.406h13.7A35.025,35.025,0,0,1,223.959,110.818Zm-9.1-8.1a81.962,81.962,0,0,0,1.552-14.564h17.649A34.4,34.4,0,0,1,230,102.719Z" transform="translate(-175.823 -47.948)" fill="#d5dae0" stroke="#f5f5f5" stroke-width="0.5"/>
      </g>
    </g>
    <g id="Group_6662" data-name="Group 6662" transform="translate(0 61.766)">
      <g id="Group_6661" data-name="Group 6661">
        <path id="Path_7671" data-name="Path 7671" d="M57.505,146.32a15.484,15.484,0,0,0-12.219-6.032H38.594l-6.755-16.247a1.843,1.843,0,0,0-1.7-1.136H23.176a1.844,1.844,0,0,0-1.844,1.843v15.54H14.6l-4.71-5.643a1.844,1.844,0,0,0-1.415-.662H1.843a1.843,1.843,0,0,0-1.6,2.756l6.094,10.7-6.094,10.7a1.844,1.844,0,0,0,1.6,2.756H8.48a1.843,1.843,0,0,0,1.415-.662l4.71-5.643h6.727v15.559A1.844,1.844,0,0,0,23.176,172h6.961a1.843,1.843,0,0,0,1.7-1.137l6.755-16.266h6.692a15.483,15.483,0,0,0,12.219-6.032A1.843,1.843,0,0,0,57.505,146.32ZM25.019,126.592h3.888l5.694,13.7H25.019v-13.7Zm3.887,41.717H25.019V154.582h9.588Zm16.381-17.4H14.028a1.885,1.885,0,0,0-.357-.018,1.845,1.845,0,0,0-1.328.66l-4.726,5.663h-2.6l5.044-8.858a1.843,1.843,0,0,0,0-1.824L5.014,137.67h2.6l4.726,5.663a1.843,1.843,0,0,0,1.332.66,1.873,1.873,0,0,0,.354-.018H45.287a11.787,11.787,0,0,1,8.311,3.466A11.787,11.787,0,0,1,45.287,150.907Z" transform="translate(0 -122.905)" fill="#d5dae0" stroke="#f5f5f5" stroke-width="0.5"/>
      </g>
    </g>
  </g>
</svg>
