<svg xmlns="http://www.w3.org/2000/svg" width="130.934" height="32" viewBox="0 0 130.934 32">
  <g id="bamboo" transform="translate(-417.153 -509.864)">
    <g id="Group_13440" data-name="Group 13440" transform="translate(508.51 509.864)">
      <path id="Path_8908" data-name="Path 8908" d="M602.949,509.883a5.328,5.328,0,0,1,.544-.018c.089,6.744.239,13.484.327,20.228a50.356,50.356,0,0,0-7.238.68c-.064-5.413-.21-10.823-.264-16.235,1.16-1.043,2.253-2.16,3.441-3.171a9.572,9.572,0,0,1,3.189-1.484Z" transform="translate(-573.628 -509.864)" fill="#64b053"/>
      <path id="Path_8909" data-name="Path 8909" d="M611.14,509.865h2.114a3.654,3.654,0,0,1,.028,2.121c-1.334,5.228-2.555,10.492-4.071,15.673,0-5.89.36-11.876.445-17.769C610.171,509.871,610.645,509.9,611.14,509.865Z" transform="translate(-578.314 -509.865)" fill="#64b053"/>
      <path id="Path_8910" data-name="Path 8910" d="M579.591,528.19c2.815-3.228,5.577-6.509,8.694-9.453-.078,5.16-.064,10.324-.121,15.488-1.1.2-2.181.441-3.267.694.05-3.982.117-7.964.05-11.947-.559,4.032-.459,8.117-.911,12.16a50.355,50.355,0,0,0-7.207,2.474c.267-2.213.207-4.459.516-6.662A20.221,20.221,0,0,1,579.591,528.19Z" transform="translate(-566.544 -513.089)" fill="#64b053"/>
      <path id="Path_8911" data-name="Path 8911" d="M560.672,552.75c2.926-3.459,5.716-7.021,8.552-10.548.2,1.495.334,3,.459,4.5A36.692,36.692,0,0,0,560.672,552.75Z" transform="translate(-560.672 -521.618)" fill="#64b053"/>
    </g>
    <g id="Group_13441" data-name="Group 13441" transform="translate(508.207 530.093)">
      <path id="Path_8912" data-name="Path 8912" d="M583.454,542.323a50.356,50.356,0,0,1,7.238-.68,11.091,11.091,0,0,1-3.036,4.392c-3.114,2.4-6.95,3.563-10.716,4.481-5.132,1.448-10.463,1.8-15.719,2.495l-1.025-.124.3-.339a36.694,36.694,0,0,1,9.011-6.05c.42-.2.847-.385,1.274-.566a50.355,50.355,0,0,1,7.207-2.474l.861-.213c1.085-.253,2.171-.495,3.267-.694Z" transform="translate(-560.197 -541.643)" fill="#004f8b"/>
    </g>
    <g id="Group_13442" data-name="Group 13442" transform="translate(454.22 524.428)">
      <path id="Path_8913" data-name="Path 8913" d="M475.384,532.743q1.169.021,2.342.017-.027,4.463,0,8.919c-.744-.128-2.05.257-2.288-.733C475.334,538.216,475.423,535.476,475.384,532.743Z" transform="translate(-475.384 -532.743)" fill="#64b053"/>
    </g>
    <g id="Group_13443" data-name="Group 13443" transform="translate(509.232 530.093)">
      <path id="Path_8914" data-name="Path 8914" d="M591.277,541.643a52.669,52.669,0,0,1,9.385,1.032v.114a59.557,59.557,0,0,1-10.036,5.936,54.85,54.85,0,0,1-28.819,4.285c5.256-.694,10.587-1.046,15.719-2.495,3.766-.918,7.6-2.078,10.716-4.481A11.092,11.092,0,0,0,591.277,541.643Z" transform="translate(-561.807 -541.643)" fill="#4bbeed"/>
    </g>
    <g id="Group_13444" data-name="Group 13444" transform="translate(417.153 519.634)">
      <path id="Path_8915" data-name="Path 8915" d="M506.589,531.638a10.116,10.116,0,0,1,.638.882,3.119,3.119,0,0,1,.341,2.272,3.439,3.439,0,0,1-2.283,2.54,4.957,4.957,0,0,1-1.868.344c-2.04,0-4.08.005-6.121-.007a2.673,2.673,0,0,1-.781-.15.925.925,0,0,1-.628-.971c-.013-.525,0-1.049,0-1.574q0-4.077,0-8.155a.971.971,0,0,1,.7-1.045,2.043,2.043,0,0,1,.675-.115c2.13-.008,4.26-.034,6.39.006a4.148,4.148,0,0,1,3.349,1.61,2.982,2.982,0,0,1,.646,1.993,3.315,3.315,0,0,1-.732,2.026C506.808,531.423,506.686,531.536,506.589,531.638Zm-5.367-3.8c-.793,0-1.586,0-2.379,0-.161,0-.229.053-.227.222q.01,1.142,0,2.283c0,.166.057.229.223.229,1.573,0,3.146,0,4.719-.006a1.3,1.3,0,0,0,.95-.393,1.354,1.354,0,0,0-.393-2.195,1.781,1.781,0,0,0-.629-.131C502.732,527.831,501.977,527.841,501.222,527.841Zm.055,4.915c-.806,0-1.612,0-2.418,0-.182,0-.246.062-.244.246.008.716,0,1.432,0,2.148,0,.3.021.319.314.319,1.445,0,2.89,0,4.336,0a4.259,4.259,0,0,0,.588-.055,1.334,1.334,0,0,0,.92-1.876,1.3,1.3,0,0,0-1.274-.777C502.761,532.757,502.019,532.756,501.278,532.757Z" transform="translate(-445.766 -525.37)" fill="#004f8b"/>
      <path id="Path_8916" data-name="Path 8916" d="M427.806,531.641a10.105,10.105,0,0,1,.658.9,3.123,3.123,0,0,1,.388,1.519,3.157,3.157,0,0,1-.722,2.125,3.768,3.768,0,0,1-1.585,1.134,5.413,5.413,0,0,1-2.039.355c-2-.006-4,0-6.007,0a1.783,1.783,0,0,1-.934-.237.764.764,0,0,1-.41-.7q.007-5.067,0-10.134a.862.862,0,0,1,.743-.86,7.74,7.74,0,0,1,1.008-.083c1.971-.008,3.941-.024,5.912,0a4.3,4.3,0,0,1,3.133,1.293,2.935,2.935,0,0,1,.872,1.649,3.242,3.242,0,0,1-.95,2.958A.733.733,0,0,0,427.806,531.641Zm-5.39-1.069h2.3a.379.379,0,0,0,.038,0,1.3,1.3,0,0,0,1.341-1.136,1.321,1.321,0,0,0-1.357-1.588c-1.554-.018-3.108-.005-4.663,0-.237,0-.253.015-.253.249q0,1.1,0,2.206c0,.26.013.273.269.274Zm.07,2.187c-.807,0-1.612,0-2.418,0-.183,0-.247.062-.245.246.008.716,0,1.433,0,2.149,0,.3.02.318.314.318,1.516,0,3.032.007,4.549-.007a1.884,1.884,0,0,0,.7-.158,1.31,1.31,0,0,0,.7-1.488,1.331,1.331,0,0,0-1.4-1.06C423.957,532.768,423.221,532.758,422.485,532.758Z" transform="translate(-417.153 -525.371)" fill="#004f8b"/>
      <path id="Path_8917" data-name="Path 8917" d="M472.827,525.663h7.582c.3,0,.3,0,.3.293v11.421c0,.3,0,.3-.314.3-.384,0-.768.012-1.151,0a1.589,1.589,0,0,1-.9-.279,1.162,1.162,0,0,1-.391-1.032c-.009-1.657,0-3.315,0-4.971q0-1.343,0-2.687c0-.287-.022-.307-.3-.307H466.978c-.277,0-.283.007-.284.3v8.676c0,.308,0,.308-.3.309-.384,0-.769.016-1.151-.005a1.444,1.444,0,0,1-1-.365.882.882,0,0,1-.268-.651q0-2.851,0-5.7c0-1.421.013-2.841-.006-4.261a.973.973,0,0,1,.807-.963,6.983,6.983,0,0,1,.779-.07Q469.19,525.657,472.827,525.663Z" transform="translate(-434.167 -525.376)" fill="#004f8b"/>
      <path id="Path_8918" data-name="Path 8918" d="M532.19,531.494c0,.742.015,1.484,0,2.225a2.838,2.838,0,0,1-.675,1.674A5.865,5.865,0,0,1,529,537.179a6.778,6.778,0,0,1-2.411.536,14.86,14.86,0,0,1-1.986-.027,6.856,6.856,0,0,1-4.188-1.93,3.429,3.429,0,0,1-.955-1.735,4.331,4.331,0,0,1-.081-.876c-.009-1.094,0-2.187,0-3.281a3.719,3.719,0,0,1,1.514-3.049,7.006,7.006,0,0,1,1.989-1.118,10.863,10.863,0,0,1,1.2-.311,8.293,8.293,0,0,1,2.59-.134,7.3,7.3,0,0,1,3.769,1.333,4.3,4.3,0,0,1,1.523,1.78,2.813,2.813,0,0,1,.244,1.129c-.005.665,0,1.331,0,2Zm-2.71.01c0-.576-.015-1.153,0-1.728a1.628,1.628,0,0,0-.53-1.266,4.086,4.086,0,0,0-2.652-1.083,8.208,8.208,0,0,0-1.449.073,3.722,3.722,0,0,0-1.966.812,1.774,1.774,0,0,0-.754,1.474c.019,1.164.011,2.329,0,3.493a1.648,1.648,0,0,0,.5,1.2,3.763,3.763,0,0,0,1.995,1.016,5.641,5.641,0,0,0,2.153.031,4.172,4.172,0,0,0,1.978-.845,1.713,1.713,0,0,0,.718-1.431C529.465,532.668,529.48,532.085,529.48,531.5Z" transform="translate(-454.306 -525.212)" fill="#004f8b"/>
      <path id="Path_8919" data-name="Path 8919" d="M556.78,531.514c0,.716.012,1.433,0,2.148a2.791,2.791,0,0,1-.5,1.482,5.592,5.592,0,0,1-2.661,2.036,6.712,6.712,0,0,1-2.427.546,14.021,14.021,0,0,1-2.082-.032,6.781,6.781,0,0,1-4.147-1.972,3.166,3.166,0,0,1-.932-1.884c-.025-.234-.045-.47-.047-.706,0-1.081.016-2.162-.006-3.243a3.7,3.7,0,0,1,1.565-3.118,6.64,6.64,0,0,1,2.184-1.15,7.858,7.858,0,0,1,1.531-.3,12.42,12.42,0,0,1,1.987-.049,7.132,7.132,0,0,1,3.892,1.413,3.9,3.9,0,0,1,1.515,1.991,4.468,4.468,0,0,1,.146,1.075c.023.588.006,1.177.006,1.765Zm-2.721.01c0-.589-.017-1.178.005-1.765a1.567,1.567,0,0,0-.49-1.182,4.023,4.023,0,0,0-2.7-1.137,8.05,8.05,0,0,0-1.43.071,3.8,3.8,0,0,0-1.88.736,1.91,1.91,0,0,0-.876,1.631c.009,1.106,0,2.213,0,3.32a1.773,1.773,0,0,0,.565,1.334,4.1,4.1,0,0,0,2.616,1.07,7.574,7.574,0,0,0,1.507-.072,3.71,3.71,0,0,0,1.943-.821,1.745,1.745,0,0,0,.745-1.5C554.035,532.651,554.059,532.087,554.059,531.524Z" transform="translate(-463.244 -525.226)" fill="#004f8b"/>
      <path id="Path_8920" data-name="Path 8920" d="M452.768,537.654c-.735,0-1.428.037-2.114-.012a1.361,1.361,0,0,1-1.181-.93c-.307-.731-.647-1.45-.964-2.178a.252.252,0,0,0-.269-.165c-.237,0-.474,0-.71,0-1.484,0-2.969,0-4.453,0a.349.349,0,0,0-.373.248c-.409.952-.836,1.9-1.256,2.843a.292.292,0,0,1-.314.207c-.453-.016-.908,0-1.362-.011a1.432,1.432,0,0,1-.5-.115.688.688,0,0,1-.322-1.024c.442-.985.878-1.973,1.318-2.959.373-.836.751-1.669,1.122-2.506.433-.976.859-1.956,1.29-2.935.212-.483.415-.971.641-1.448a1.759,1.759,0,0,1,1.053-.861,3.768,3.768,0,0,1,1.869-.159,2.112,2.112,0,0,1,1.511.766,4.456,4.456,0,0,1,.412.793c.265.578.521,1.161.779,1.743.34.768.677,1.538,1.016,2.306q.554,1.256,1.109,2.51.518,1.169,1.038,2.336c.194.436.389.872.581,1.309C452.722,537.481,452.737,537.554,452.768,537.654Zm-7.114-9.565a1.987,1.987,0,0,0-.159.242q-.482,1.069-.957,2.141c-.223.505-.439,1.015-.665,1.519-.071.157-.005.194.136.194,1.074,0,2.148,0,3.222,0,.189,0,.218-.064.139-.24q-.472-1.052-.937-2.107Z" transform="translate(-425.039 -525.354)" fill="#004f8b"/>
      <path id="Path_8921" data-name="Path 8921" d="M444.984,551.47c0,.4-.018.807,0,1.209a1.175,1.175,0,0,1-.787,1.194,2.491,2.491,0,0,1-2.414-.1.288.288,0,0,0-.234.015,2.458,2.458,0,0,1-2.611-.054,1.1,1.1,0,0,1-.551-1.024c.02-.831.005-1.663.006-2.494,0-.276.119-.394.395-.4.54-.009.54-.009.54.538,0,.773.005,1.547,0,2.321a.528.528,0,0,0,.248.484,1.327,1.327,0,0,0,1.393,0,.473.473,0,0,0,.219-.456q-.009-1.161,0-2.322a.605.605,0,0,1,.066-.33.669.669,0,0,1,.314-.23,1.674,1.674,0,0,1,.381-.011c.173-.014.218.064.217.226-.005.825,0,1.65,0,2.475,0,.54.132.683.658.808a1.287,1.287,0,0,0,.97-.161.447.447,0,0,0,.239-.425q0-1.228,0-2.456c0-.349.129-.463.482-.465.463,0,.463,0,.463.467Z" transform="translate(-424.873 -534.151)" fill="#004f8b"/>
      <path id="Path_8922" data-name="Path 8922" d="M434.271,554.026a1.53,1.53,0,0,1-1.008-.092,1.693,1.693,0,0,1-.386-.554c-.125-.206-.238-.421-.355-.633a.364.364,0,0,0-.342-.2c-.3,0-.6,0-.9,0-.167,0-.224.07-.22.232.008.351,0,.7,0,1.055,0,.168-.061.239-.227.218-.013,0-.025,0-.038,0-.518-.021-.709-.089-.7-.7.022-1,.006-1.995.006-2.992,0-.421.115-.538.528-.539q1.093,0,2.187,0a1.475,1.475,0,0,1,1.37.977,1.3,1.3,0,0,1-.52,1.458c-.289.186-.283.182-.116.475C433.792,553.142,434.016,553.562,434.271,554.026Zm-2.257-3.449h0c-.255,0-.511,0-.766,0-.124,0-.19.049-.188.182,0,.288,0,.575,0,.862,0,.112.052.167.16.167.5,0,1.01.013,1.513-.006a.6.6,0,0,0-.05-1.2C432.461,550.573,432.237,550.577,432.014,550.577Z" transform="translate(-421.859 -534.155)" fill="#004f8b"/>
      <path id="Path_8923" data-name="Path 8923" d="M469.276,550.788a.837.837,0,0,1-1.094-.023,1.108,1.108,0,0,0-.792-.331,1.979,1.979,0,0,0-1.155.179.417.417,0,0,0-.249.435.363.363,0,0,0,.343.331,7.6,7.6,0,0,0,.965.092,2.383,2.383,0,0,1,1.681.5,1.006,1.006,0,0,1,.018,1.5,1.935,1.935,0,0,1-1.166.552,3.57,3.57,0,0,1-1.351-.017,1.861,1.861,0,0,1-1.483-1.068c.5-.272.768-.3,1.173.073a1.592,1.592,0,0,0,1.268.294,2.641,2.641,0,0,0,.589-.148.477.477,0,0,0,.34-.44.489.489,0,0,0-.43-.4c-.495-.041-.991-.06-1.486-.1a1.794,1.794,0,0,1-.948-.314,1.093,1.093,0,0,1,.073-1.873,2.577,2.577,0,0,1,1.4-.369,2.955,2.955,0,0,1,1.632.381A1.5,1.5,0,0,1,469.276,550.788Z" transform="translate(-434.54 -534.098)" fill="#004f8b"/>
      <path id="Path_8924" data-name="Path 8924" d="M452.272,552.9c-.275,0-.55,0-.825,0a.23.23,0,0,0-.248.162c-.108.265-.235.522-.346.786a.274.274,0,0,1-.306.2c-.127-.013-.257,0-.382-.022a.27.27,0,0,1-.232-.417c.249-.563.507-1.123.758-1.685s.491-1.117.735-1.675a.659.659,0,0,1,.605-.427,2.962,2.962,0,0,1,.679.051.589.589,0,0,1,.414.388q.786,1.8,1.589,3.587c.074.166.025.2-.134.2-.77.018-.824-.014-1.109-.714-.178-.435-.178-.435-.643-.435Zm0-2.189a.659.659,0,0,0-.076.095c-.165.371-.325.743-.493,1.112-.067.146-.025.2.127.2.286,0,.573,0,.86,0,.171,0,.21-.074.139-.234-.114-.255-.225-.51-.343-.763C452.427,551,452.355,550.868,452.276,550.715Z" transform="translate(-429.053 -534.157)" fill="#004f8b"/>
      <path id="Path_8925" data-name="Path 8925" d="M422.183,554.032c-.377.073-.605-.152-.741-.525-.05-.137-.134-.263-.172-.4-.049-.18-.155-.223-.325-.221-.518.007-1.037.011-1.554,0a.293.293,0,0,0-.314.212c-.095.229-.2.455-.292.685a.337.337,0,0,1-.39.256c-.12-.017-.244-.005-.362-.029-.21-.041-.283-.164-.2-.365.151-.378.314-.75.479-1.122.347-.778.705-1.551,1.044-2.332a.619.619,0,0,1,.463-.36,1.168,1.168,0,0,1,.843.052.829.829,0,0,1,.348.331c.321.686.617,1.383.922,2.076.215.488.43.976.651,1.462.108.237.09.273-.171.282C422.35,554.033,422.293,554.032,422.183,554.032Zm-1.966-3.3c-.055.041-.1.059-.119.092-.169.37-.336.74-.495,1.115a.114.114,0,0,0,.116.17c.313,0,.626.006.938,0,.039,0,.117-.1.107-.125C420.592,551.562,420.407,551.154,420.217,550.727Z" transform="translate(-417.387 -534.14)" fill="#004f8b"/>
      <path id="Path_8926" data-name="Path 8926" d="M462.079,549.808c-.18.242-.325.442-.475.638-.442.578-.881,1.158-1.331,1.729a.735.735,0,0,0-.172.508c.013.377,0,.754.006,1.132,0,.144-.045.219-.195.214-.045,0-.09.006-.134.006-.536,0-.626-.087-.626-.616,0-.256.015-.513-.006-.767a.78.78,0,0,0-.136-.383c-.494-.666-1.005-1.32-1.5-1.985a.455.455,0,0,1-.093-.327c.037-.15.2-.132.336-.155a.78.78,0,0,1,.834.414c.276.406.589.787.888,1.177.11.143.166.144.279,0,.314-.411.631-.819.937-1.236a.723.723,0,0,1,.675-.351C461.581,549.821,461.8,549.808,462.079,549.808Z" transform="translate(-431.785 -534.145)" fill="#004f8b"/>
      <path id="Path_8927" data-name="Path 8927" d="M427.6,551.916c0,.627,0,1.253,0,1.88,0,.224-.034.258-.258.252-.645-.018-.731-.124-.723-.723.013-1,0-2.008,0-3.011,0-.372.122-.5.491-.495.565.006.481-.081.486.486C427.6,550.842,427.6,551.379,427.6,551.916Z" transform="translate(-420.593 -534.155)" fill="#004f8b"/>
    </g>
  </g>
</svg>
