<svg xmlns="http://www.w3.org/2000/svg" xmlns:xlink="http://www.w3.org/1999/xlink" width="156.631" height="32" viewBox="0 0 156.631 32">
  <defs>
    <linearGradient id="linear-gradient" x1="-22.684" y1="9.742" x2="-22.352" y2="9.482" gradientUnits="objectBoundingBox">
      <stop offset="0" stop-color="#faaf4c"/>
      <stop offset="0.594" stop-color="#f79c2e"/>
      <stop offset="1" stop-color="#f6921e"/>
    </linearGradient>
    <linearGradient id="linear-gradient-2" x1="0.5" y1="-0.709" x2="0.5" y2="1.202" gradientUnits="objectBoundingBox">
      <stop offset="0" stop-color="#1a1f4a"/>
      <stop offset="1" stop-color="#72a4d7"/>
    </linearGradient>
    <linearGradient id="linear-gradient-3" x1="0.5" y1="0.148" x2="0.5" y2="1.189" xlink:href="#linear-gradient-2"/>
    <linearGradient id="linear-gradient-4" x1="0.5" y1="-0.379" x2="0.5" y2="1.201" xlink:href="#linear-gradient-2"/>
    <linearGradient id="linear-gradient-5" x1="0.5" y1="-0.379" x2="0.5" y2="1.201" xlink:href="#linear-gradient-2"/>
    <linearGradient id="linear-gradient-6" x1="0.5" y1="-0.378" x2="0.5" y2="1.198" xlink:href="#linear-gradient-2"/>
    <linearGradient id="linear-gradient-7" x1="0.5" y1="-0.379" x2="0.5" y2="1.201" xlink:href="#linear-gradient-2"/>
    <linearGradient id="linear-gradient-10" x1="0.5" y1="-0.379" x2="0.5" y2="1.199" xlink:href="#linear-gradient-2"/>
    <linearGradient id="linear-gradient-11" x1="0.5" y1="-0.377" x2="0.5" y2="1.201" xlink:href="#linear-gradient-2"/>
    <linearGradient id="linear-gradient-18" x1="0.5" y1="-0.379" x2="0.5" y2="1.204" xlink:href="#linear-gradient-2"/>
    <linearGradient id="linear-gradient-19" x1="0.5" y1="-491.609" x2="0.5" y2="72.748" xlink:href="#linear-gradient-2"/>
  </defs>
  <g id="pacific" transform="translate(-1374.509 -513.448)">
    <g id="Group_13447" data-name="Group 13447" transform="translate(1374.509 513.448)">
      <path id="Path_8928" data-name="Path 8928" d="M1573.045,513.536l4.13-.088-7.132,12.346h-12.287s4.246-1.6,5.887-2.973c1.259-1.069,6.635-7.249,7.2-7.981A3.392,3.392,0,0,1,1573.045,513.536Z" transform="translate(-1421.715 -513.448)" fill="url(#linear-gradient)"/>
      <g id="Group_13446" data-name="Group 13446" transform="translate(0 6.019)">
        <path id="Path_8929" data-name="Path 8929" d="M1558.7,533.017l1.742,2.885a2.811,2.811,0,0,0,1.817,1.01c.747.1,7.292,1.377,8.567,1.831a22.338,22.338,0,0,1,4.5,2.944l-5.008-8.67Z" transform="translate(-1421.959 -524.508)" fill="url(#linear-gradient-2)"/>
        <path id="Path_8930" data-name="Path 8930" d="M1583.068,533.184c-.249-.586-2.094-5.946-2.3-7.074a19.22,19.22,0,0,1,.249-4.555l-4.247,7.367,4.935,8.553,1.376-2.5A2.436,2.436,0,0,0,1583.068,533.184Z" transform="translate(-1426.614 -521.555)" fill="url(#linear-gradient-3)"/>
        <path id="Path_8931" data-name="Path 8931" d="M1384.848,533.6a3,3,0,0,0-.44-2.621,3.114,3.114,0,0,0-2.489-.879h-5.565l-1.846,10.486h2.592l.6-3.486h2.958a4.306,4.306,0,0,0,2.812-.879A4.182,4.182,0,0,0,1384.848,533.6Zm-2.709,0a1.425,1.425,0,0,1-1.552,1.333v-.014h-2.475l.453-2.651h2.49C1381.934,532.266,1382.3,532.719,1382.139,533.6Z" transform="translate(-1374.509 -523.756)" fill="url(#linear-gradient-4)"/>
        <path id="Path_8932" data-name="Path 8932" d="M1392.429,530.1l-5.887,10.486h2.811l1.04-2.036h4.042l.352,2.036h2.871l-2.2-10.486Zm-.938,6.3,1.978-3.837.615,3.837Z" transform="translate(-1377.609 -523.755)" fill="url(#linear-gradient-5)"/>
        <path id="Path_8933" data-name="Path 8933" d="M1406.3,533.92a2.743,2.743,0,0,1,.688-.952,2.416,2.416,0,0,1,1.04-.527,6.042,6.042,0,0,1,1.464-.161h2.782l.4-2.183h-3.324a6.23,6.23,0,0,0-4.189,1.289,6.522,6.522,0,0,0-1.977,3.955c-.308,1.786-.117,3.12.586,3.969s1.963,1.274,3.749,1.274v.029h3.368l.381-2.182h-2.841a5.5,5.5,0,0,1-1.42-.161,1.667,1.667,0,0,1-.85-.527,1.732,1.732,0,0,1-.351-.952,6.536,6.536,0,0,1,.088-1.436A6.23,6.23,0,0,1,1406.3,533.92Z" transform="translate(-1381.859 -523.755)" fill="url(#linear-gradient-6)"/>
        <path id="Path_8934" data-name="Path 8934" d="M1417.842,530.1,1416,540.583h2.592l1.845-10.486Z" transform="translate(-1385.197 -523.756)" fill="url(#linear-gradient-7)"/>
        <path id="Path_8935" data-name="Path 8935" d="M1425.842,533.451a1.767,1.767,0,0,1,.483-.674,1.8,1.8,0,0,1,.747-.38,4.352,4.352,0,0,1,1.054-.117h2.754l.4-2.183H1427.8a4.4,4.4,0,0,0-4.8,4.071l-1.128,6.415h2.592l.644-3.734v.014h4.819l.38-2.182h-4.8l.044-.19A4.979,4.979,0,0,1,1425.842,533.451Z" transform="translate(-1386.71 -523.755)" fill="url(#linear-gradient-5)"/>
        <path id="Path_8936" data-name="Path 8936" d="M1434.221,540.583h2.592l1.845-10.486h-2.592Z" transform="translate(-1389.891 -523.756)" fill="url(#linear-gradient-7)"/>
        <path id="Path_8937" data-name="Path 8937" d="M1443.077,531.386a6.522,6.522,0,0,0-1.978,3.955c-.307,1.786-.117,3.12.586,3.969s1.962,1.274,3.749,1.274v.015h3.383l.381-2.183h-2.841a5.5,5.5,0,0,1-1.421-.161,1.656,1.656,0,0,1-.849-.527,1.73,1.73,0,0,1-.351-.952,6.475,6.475,0,0,1,.088-1.435,6.235,6.235,0,0,1,.41-1.436,2.773,2.773,0,0,1,.688-.952,2.42,2.42,0,0,1,1.04-.527,6.042,6.042,0,0,1,1.465-.161h2.782l.381-2.168h-3.324A6.23,6.23,0,0,0,1443.077,531.386Z" transform="translate(-1391.627 -523.755)" fill="url(#linear-gradient-10)"/>
        <path id="Path_8938" data-name="Path 8938" d="M1462.425,530.078l-5.887,10.5h2.812l1.04-2.036h4.042l.352,2.036v-.015h2.87l-2.2-10.486Zm-.938,6.312,1.977-3.837.615,3.837Z" transform="translate(-1395.641 -523.751)" fill="url(#linear-gradient-11)"/>
        <path id="Path_8939" data-name="Path 8939" d="M1474.991,530.1l-1.846,10.486h2.593l1.845-10.486Z" transform="translate(-1399.919 -523.756)" fill="url(#linear-gradient-7)"/>
        <path id="Path_8940" data-name="Path 8940" d="M1486.586,530.1h-5.7l-1.846,10.486h2.592l.63-3.661h1.8l1.714,3.661h3.135L1487,536.732a3.843,3.843,0,0,0,.659-.278,3.015,3.015,0,0,0,.747-.542,4,4,0,0,0,.688-.937,4.905,4.905,0,0,0,.468-1.465,2.881,2.881,0,0,0-.439-2.592A3.354,3.354,0,0,0,1486.586,530.1Zm.249,3.4a1.444,1.444,0,0,1-.483.952,1.684,1.684,0,0,1-1.04.278h-2.65l.424-2.46h2.636a1.32,1.32,0,0,1,.953.278A1.021,1.021,0,0,1,1486.835,533.495Z" transform="translate(-1401.438 -523.755)" fill="url(#linear-gradient-5)"/>
        <path id="Path_8941" data-name="Path 8941" d="M1498.392,538.264a1.276,1.276,0,0,1-.629-.381,1.171,1.171,0,0,1-.263-.688,4.188,4.188,0,0,1,.073-1.084l1.069-6.033h-2.593l-1.143,6.385c-.468,2.753.659,4.115,3.4,4.115v-.015h3.6l.381-2.182h-2.841A4.182,4.182,0,0,1,1498.392,538.264Z" transform="translate(-1405.498 -523.751)" fill="url(#linear-gradient-11)"/>
        <path id="Path_8942" data-name="Path 8942" d="M1508.09,530.1l-1.845,10.486h2.593l1.845-10.486Z" transform="translate(-1408.446 -523.756)" fill="url(#linear-gradient-7)"/>
        <path id="Path_8943" data-name="Path 8943" d="M1519.777,537.215l-2.431-7.118h-3.354l-1.845,10.486h2.461l1.274-7.264,2.519,7.264h3.265L1523.5,530.1h-2.461Z" transform="translate(-1409.966 -523.756)" fill="url(#linear-gradient-7)"/>
        <path id="Path_8944" data-name="Path 8944" d="M1530.29,531.386a6.522,6.522,0,0,0-1.977,3.955c-.307,1.786-.117,3.12.586,3.969s1.962,1.274,3.75,1.274v.015h3.383l.38-2.183h-2.87a3.654,3.654,0,0,1-2.036-.439,1.7,1.7,0,0,1-.6-1.552h5.551l.38-2.183h-5.55a3.027,3.027,0,0,1,.469-.952,2.24,2.24,0,0,1,.689-.6,2.948,2.948,0,0,1,.937-.322,7.556,7.556,0,0,1,1.23-.088h2.724l.4-2.183h-3.252A6.23,6.23,0,0,0,1530.29,531.386Z" transform="translate(-1414.094 -523.755)" fill="url(#linear-gradient-10)"/>
        <path id="Path_8945" data-name="Path 8945" d="M1542.183,533.226c-.366,2.123.5,3.178,2.593,3.178h1.992c.644,0,.923.337.82,1a1.084,1.084,0,0,1-1.171,1h-4.849l-.375,2.153h5.355a3.832,3.832,0,0,0,2.534-.791,3.778,3.778,0,0,0,1.216-2.372,2.87,2.87,0,0,0-.4-2.373,2.774,2.774,0,0,0-2.241-.791H1545.7c-.659,0-.923-.321-.806-.981a1.06,1.06,0,0,1,1.157-.981h4.716l.4-2.182H1545.9A3.425,3.425,0,0,0,1542.183,533.226Z" transform="translate(-1417.448 -523.751)" fill="url(#linear-gradient-18)"/>
        <path id="Path_8946" data-name="Path 8946" d="M1541.185,544.212l.005-.029h-.005Z" transform="translate(-1417.447 -527.384)" fill="url(#linear-gradient-19)"/>
      </g>
      <path id="Path_8947" data-name="Path 8947" d="M1403.863,549.719h1.342V553.4h.779v-3.682h1.342v-.659h-3.464Z" transform="translate(-1382.071 -522.622)" fill="#324471"/>
      <path id="Path_8948" data-name="Path 8948" d="M1410.15,551.494a.677.677,0,0,1,.7-.742.613.613,0,0,1,.641.7V553.4h.767v-2.073a1.084,1.084,0,0,0-1.121-1.225.957.957,0,0,0-.969.6h-.038V549.06h-.751V553.4h.767Z" transform="translate(-1383.493 -522.622)" fill="#324471"/>
      <path id="Path_8949" data-name="Path 8949" d="M1415.2,553.359a1.007,1.007,0,0,0,.956-.513h.025v.448h.738v-2.18c0-.86-.7-1.119-1.323-1.119a1.306,1.306,0,0,0-1.38.9l.716.1a.651.651,0,0,1,.668-.413c.356,0,.551.182.551.5v.013c0,.221-.231.232-.806.293-.632.068-1.236.257-1.236.99A.97.97,0,0,0,1415.2,553.359Zm.2-.563c-.321,0-.549-.146-.549-.428s.256-.418.6-.466a2.342,2.342,0,0,0,.7-.16v.384A.693.693,0,0,1,1415.4,552.8Zm-.049-3.186h.574l-.473-.969h-.753Z" transform="translate(-1384.71 -522.514)" fill="#324471"/>
      <path id="Path_8950" data-name="Path 8950" d="M1419.7,551.856a.669.669,0,0,1,.689-.742.613.613,0,0,1,.634.7v1.955h.767V551.69a1.083,1.083,0,0,0-1.115-1.225.977.977,0,0,0-.97.6h-.039v-.553h-.733v3.256h.768Z" transform="translate(-1385.953 -522.984)" fill="#324471"/>
      <path id="Path_8951" data-name="Path 8951" d="M1424.6,551.494a.677.677,0,0,1,.7-.742.613.613,0,0,1,.64.7V553.4h.768v-2.073a1.084,1.084,0,0,0-1.122-1.225.957.957,0,0,0-.969.6h-.038V549.06h-.751V553.4h.768Z" transform="translate(-1387.215 -522.622)" fill="#324471"/>
      <path id="Path_8952" data-name="Path 8952" d="M1433.576,550.522h-.817l-.75,2.419h-.033l-.748-2.419h-.818l1.16,3.256h.848Z" transform="translate(-1388.909 -522.999)" fill="#324471"/>
      <path id="Path_8953" data-name="Path 8953" d="M1435.37,553.329h.768v-3.256h-.768Zm.386-3.719a.417.417,0,1,0-.445-.416A.43.43,0,0,0,1435.755,549.61Z" transform="translate(-1390.172 -522.549)" fill="#324471"/>
      <path id="Path_8954" data-name="Path 8954" d="M1438.879,553.378a1.324,1.324,0,0,0,1.417-.937l-.717-.08a.678.678,0,0,1-.688.419.8.8,0,0,1-.832-.884h2.269v-.235a1.452,1.452,0,0,0-1.489-1.644,1.531,1.531,0,0,0-1.541,1.689A1.513,1.513,0,0,0,1438.879,553.378Zm-.491-3.71.43-.543.431.543h.672v-.03l-.8-.915h-.6l-.8.915v.03Zm-.327,1.711a.782.782,0,0,1,.788-.765.726.726,0,0,1,.742.765Z" transform="translate(-1390.684 -522.535)" fill="#324471"/>
      <path id="Path_8955" data-name="Path 8955" d="M1443.021,551.856a.669.669,0,0,1,.689-.742.613.613,0,0,1,.633.7v1.955h.768V551.69a1.084,1.084,0,0,0-1.115-1.225.977.977,0,0,0-.971.6h-.038v-.553h-.734v3.256h.768Z" transform="translate(-1391.961 -522.984)" fill="#324471"/>
      <path id="Path_8956" data-name="Path 8956" d="M1450.52,553.827a1.276,1.276,0,0,0,1.394-1.176h-.734a.634.634,0,0,1-.655.551c-.479,0-.788-.4-.788-1.066s.315-1.052.788-1.052a.637.637,0,0,1,.655.552h.734a1.278,1.278,0,0,0-1.4-1.17,1.686,1.686,0,0,0,0,3.362Z" transform="translate(-1393.688 -522.984)" fill="#324471"/>
      <path id="Path_8957" data-name="Path 8957" d="M1455.864,551.838a.692.692,0,0,1-.693.742.606.606,0,0,1-.615-.674v-1.954h-.768v2.073a1.079,1.079,0,0,0,1.085,1.226,1,1,0,0,0,.979-.621h.034v.579h.744v-3.256h-.767Zm-.356-2.344v-.2c.227-.033.449-.154.447-.424,0-.352-.367-.568-1.066-.568l-.019.379c.246,0,.434.051.432.2,0,.119-.111.184-.409.2l.03.407Z" transform="translate(-1394.932 -522.428)" fill="#324471"/>
      <path id="Path_8958" data-name="Path 8958" d="M1459.564,553.829a1,1,0,0,0,.956-.513h.025v.448h.738v-2.18c0-.86-.7-1.119-1.323-1.119a1.306,1.306,0,0,0-1.38.9l.717.1a.65.65,0,0,1,.667-.413c.356,0,.551.182.551.5v.013c0,.221-.231.232-.805.293-.631.068-1.235.257-1.235.99A.969.969,0,0,0,1459.564,553.829Zm.2-.563c-.32,0-.55-.146-.55-.428s.257-.418.6-.466a2.336,2.336,0,0,0,.7-.16v.384A.693.693,0,0,1,1459.764,553.265Z" transform="translate(-1396.14 -522.984)" fill="#324471"/>
      <path id="Path_8959" data-name="Path 8959" d="M1465.821,549.06h-.863l1.529,4.341h.97l1.531-4.341h-.865L1467,552.477h-.045Z" transform="translate(-1397.81 -522.622)" fill="#324471"/>
      <path id="Path_8960" data-name="Path 8960" d="M1471.09,553.329h.767v-3.256h-.767Zm.385-3.719a.417.417,0,1,0-.445-.416A.431.431,0,0,0,1471.475,549.61Z" transform="translate(-1399.374 -522.549)" fill="#324471"/>
      <path id="Path_8961" data-name="Path 8961" d="M1474.6,553.827a1.322,1.322,0,0,0,1.416-.937l-.717-.08a.678.678,0,0,1-.689.419.8.8,0,0,1-.831-.884h2.268v-.235a1.451,1.451,0,0,0-1.488-1.644,1.53,1.53,0,0,0-1.541,1.689A1.513,1.513,0,0,0,1474.6,553.827Zm-.819-2a.784.784,0,0,1,.789-.765.726.726,0,0,1,.742.765Z" transform="translate(-1399.886 -522.984)" fill="#324471"/>
      <path id="Path_8962" data-name="Path 8962" d="M1479.514,550.251h-.642v-.78h-.768v.78h-.462v.593h.462v1.811a.877.877,0,0,0,1.018.9,1.565,1.565,0,0,0,.451-.076l-.129-.6a.975.975,0,0,1-.225.03c-.193,0-.347-.068-.347-.378v-1.683h.642Z" transform="translate(-1401.077 -522.728)" fill="#324471"/>
      <path id="Path_8963" data-name="Path 8963" d="M1481.8,551.856a.669.669,0,0,1,.689-.742.613.613,0,0,1,.633.7v1.955h.768V551.69a1.083,1.083,0,0,0-1.114-1.225.978.978,0,0,0-.971.6h-.039v-.553h-.734v3.256h.768Z" transform="translate(-1401.949 -522.984)" fill="#324471"/>
      <path id="Path_8964" data-name="Path 8964" d="M1486.813,553.829a1,1,0,0,0,.955-.513h.026v.448h.737v-2.18c0-.86-.7-1.119-1.322-1.119a1.306,1.306,0,0,0-1.381.9l.716.1a.652.652,0,0,1,.668-.413c.356,0,.551.182.551.5v.013c0,.221-.231.232-.806.293-.631.068-1.235.257-1.235.99A.969.969,0,0,0,1486.813,553.829Zm.2-.563c-.32,0-.549-.146-.549-.428s.257-.418.6-.466a2.339,2.339,0,0,0,.7-.16v.384A.693.693,0,0,1,1487.012,553.265Z" transform="translate(-1403.159 -522.984)" fill="#324471"/>
      <path id="Path_8965" data-name="Path 8965" d="M1490.545,553.763h.768v-1.98a.62.62,0,0,1,.6-.673.521.521,0,0,1,.546.554v2.1h.753v-2.031a.566.566,0,0,1,.589-.621.525.525,0,0,1,.556.586v2.067h.769v-2.186a1.05,1.05,0,0,0-1.994-.517h-.034a.872.872,0,0,0-.88-.6.9.9,0,0,0-.9.6h-.039v-.553h-.733Z" transform="translate(-1404.401 -522.984)" fill="#324471"/>
      <path id="Path_8966" data-name="Path 8966" d="M1500.262,553.4l.359-1.07h1.632l.36,1.07h.839l-1.53-4.341h-.971l-1.529,4.341Zm.57-1.7.587-1.749h.034l.587,1.749Z" transform="translate(-1406.688 -522.622)" fill="#324471"/>
      <path id="Path_8967" data-name="Path 8967" d="M1505.585,553.329h.768v-3.256h-.768Zm.386-3.719a.417.417,0,1,0-.445-.416A.431.431,0,0,0,1505.971,549.61Z" transform="translate(-1408.26 -522.549)" fill="#324471"/>
      <path id="Path_8968" data-name="Path 8968" d="M1507.7,553.762h.768v-1.915a.7.7,0,0,1,.733-.706,1.493,1.493,0,0,1,.356.045v-.706a1.864,1.864,0,0,0-.276-.021.812.812,0,0,0-.8.589h-.033v-.543h-.745Z" transform="translate(-1408.821 -522.982)" fill="#324471"/>
      <path id="Path_8969" data-name="Path 8969" d="M1511.659,549.06h-.768V553.4h.768Z" transform="translate(-1409.642 -522.622)" fill="#324471"/>
      <path id="Path_8970" data-name="Path 8970" d="M1512.968,553.329h.768v-3.256h-.768Zm.386-3.719a.417.417,0,1,0-.446-.416A.43.43,0,0,0,1513.354,549.61Z" transform="translate(-1410.162 -522.549)" fill="#324471"/>
      <path id="Path_8971" data-name="Path 8971" d="M1515.852,551.856a.669.669,0,0,1,.689-.742.613.613,0,0,1,.634.7v1.955h.768V551.69a1.084,1.084,0,0,0-1.116-1.225.976.976,0,0,0-.97.6h-.038v-.553h-.733v3.256h.767Z" transform="translate(-1410.723 -522.984)" fill="#324471"/>
      <path id="Path_8972" data-name="Path 8972" d="M1521.377,553.827a1.322,1.322,0,0,0,1.416-.937l-.716-.08a.678.678,0,0,1-.689.419.8.8,0,0,1-.831-.884h2.268v-.235a1.451,1.451,0,0,0-1.488-1.644,1.53,1.53,0,0,0-1.541,1.689A1.513,1.513,0,0,0,1521.377,553.827Zm-.819-2a.784.784,0,0,1,.789-.765.726.726,0,0,1,.742.765Z" transform="translate(-1411.937 -522.984)" fill="#324471"/>
      <path id="Path_8973" data-name="Path 8973" d="M1527.274,551.368a1.168,1.168,0,0,0-1.31-.9c-.784,0-1.318.385-1.316.987,0,.475.291.788.916.918l.555.117c.3.065.439.186.439.37,0,.223-.242.391-.606.391a.584.584,0,0,1-.647-.445l-.748.072c.1.6.6.952,1.4.952s1.389-.422,1.391-1.039c0-.464-.3-.748-.916-.882l-.555-.119c-.331-.074-.463-.189-.46-.377,0-.22.242-.373.562-.373a.568.568,0,0,1,.6.407Z" transform="translate(-1413.163 -522.984)" fill="#324471"/>
      <path id="Path_8974" data-name="Path 8974" d="M1534.074,550.425h.8a1.756,1.756,0,0,0-1.831-1.445,2.243,2.243,0,0,0,.023,4.46,1.725,1.725,0,0,0,1.844-1.811v-.521h-1.761v.615h1a.987.987,0,0,1-1.079,1.011c-.727,0-1.226-.545-1.226-1.529s.507-1.52,1.209-1.52A1,1,0,0,1,1534.074,550.425Z" transform="translate(-1414.837 -522.601)" fill="#324471"/>
      <path id="Path_8975" data-name="Path 8975" d="M1537.228,553.762H1538v-1.915a.7.7,0,0,1,.734-.706,1.482,1.482,0,0,1,.356.045v-.706a1.844,1.844,0,0,0-.275-.021.813.813,0,0,0-.8.589h-.033v-.543h-.745Z" transform="translate(-1416.427 -522.982)" fill="#324471"/>
      <path id="Path_8976" data-name="Path 8976" d="M1541.607,553.827a1.685,1.685,0,1,0-1.56-1.679A1.523,1.523,0,0,0,1541.607,553.827Zm.005-.615c-.528,0-.787-.471-.787-1.066s.259-1.073.787-1.073.777.477.777,1.073S1542.131,553.212,1541.612,553.212Z" transform="translate(-1417.153 -522.984)" fill="#324471"/>
      <path id="Path_8977" data-name="Path 8977" d="M1547.2,552.408a.692.692,0,0,1-.693.742.606.606,0,0,1-.614-.674v-1.954h-.768v2.073a1.079,1.079,0,0,0,1.085,1.226,1,1,0,0,0,.979-.621h.034v.579h.744v-3.256h-.768Z" transform="translate(-1418.462 -522.999)" fill="#324471"/>
      <path id="Path_8978" data-name="Path 8978" d="M1550.02,554.984h.768V553.25h.031a.983.983,0,0,0,.933.57c.768,0,1.342-.609,1.342-1.682s-.591-1.674-1.344-1.674a.967.967,0,0,0-.931.581h-.044v-.538h-.754Zm.753-2.849c0-.632.271-1.041.765-1.041.511,0,.774.434.774,1.041s-.267,1.056-.774,1.056C1551.048,553.191,1550.773,552.767,1550.773,552.135Z" transform="translate(-1419.722 -522.984)" fill="#324471"/>
    </g>
  </g>
</svg>
