<svg xmlns="http://www.w3.org/2000/svg" width="177.305" height="32" viewBox="0 0 177.305 32">
  <path id="vietjet" d="M772.964,536.822c-2.844,0-3.841-1.79-3.733-4.277h11.315a20.076,20.076,0,0,0,.84-5.08c0-4.264-2.378-6.747-6.614-6.747a9.74,9.74,0,0,0-8.138,4.228,14.9,14.9,0,0,0-2.6,8.284c0,4.622,2.844,7.362,7.678,7.362a16.164,16.164,0,0,0,6.9-1.423l-.539-3.449A13.152,13.152,0,0,1,772.964,536.822Zm-2.743-9.89c.931-1.875,2.278-2.979,3.876-2.979,1.526,0,2.384,1.027,2.384,2.946a9.374,9.374,0,0,1-.295,2.09h-6.675A8.927,8.927,0,0,1,770.222,526.932Zm-18.049-5.684L744.474,538l-1.005-16.755H737.99l2.362,24.642h5.006l12.47-24.642Zm33.574,19.342c3.89,0,4.744-3.874,4.744-3.874a4.181,4.181,0,0,1-1.553.242c-1.757-.1-1.423-1.839-1.352-2.129l2.087-10.026h2.964l.747-3.564-2.963.009s.3-1.4.964-4.539a6.432,6.432,0,0,0-5.822,1.582l-3.493,16.647C781.359,538.324,782.73,540.59,785.747,540.59Zm40.006-3.632c-1.756-.1-1.422-1.839-1.351-2.129l2.084-10.026h2.964l.756-3.564-2.978.009s.305-1.4.974-4.539a6.429,6.429,0,0,0-5.823,1.582l-3.492,16.647c-.714,3.387.66,5.652,3.672,5.652,3.893,0,4.744-3.874,4.744-3.874A4.2,4.2,0,0,1,825.754,536.958Zm-14.166-16.241a9.764,9.764,0,0,0-8.144,4.228,14.947,14.947,0,0,0-2.584,8.284c0,4.622,2.837,7.362,7.67,7.362a16.178,16.178,0,0,0,6.906-1.423l-.541-3.449a13.227,13.227,0,0,1-5.119,1.1c-2.841,0-3.842-1.79-3.731-4.277h11.318a20.056,20.056,0,0,0,.843-5.08C818.208,523.2,815.824,520.717,811.588,520.717ZM813,528.989h-6.663a8.043,8.043,0,0,1,.709-2.057c.92-1.875,2.277-2.979,3.872-2.979,1.53,0,2.386,1.027,2.386,2.946A9.042,9.042,0,0,1,813,528.989Zm47.724-6.67-3.767,18.088h5.452l3.237-15.68a5.275,5.275,0,0,1,3.661.148l1.314-3.956A17.305,17.305,0,0,0,860.72,522.319Zm-19.193-1.071L826.718,545.89h5.4l3.049-5.492h7.554l-.055,5.492h5.472l-.969-24.642Zm1.206,15.6h-5.572l5.685-10.121Zm-47.05-15.6s-2.148,10.094-3.306,15.733c-.672,3.308-1.483,4.686-2.47,5.543a6.965,6.965,0,0,1-9.627-.461c-.39,3.333,2.286,6.527,7.185,6.527s8.651-3.667,9.906-9.3l3.793-18.045Zm-36.873,0L754.792,540.4h5.47l4.026-19.152Zm94.117,0L848.9,540.4h5.479l4.023-19.152Zm14.7,15.658a2.343,2.343,0,0,0-2.263,2.2,1.476,1.476,0,0,0,1.542,1.483,2.368,2.368,0,0,0,2.29-2.2A1.483,1.483,0,0,0,867.627,536.906Zm9.4.634c-1.142,0-1.853-.924-1.853-2.675a9.736,9.736,0,0,1,1.141-4.413,3.231,3.231,0,0,1,2.8-1.91,2.5,2.5,0,0,1,1.483.48l1.324-2.17a5.408,5.408,0,0,0-3.437-1.059,6.734,6.734,0,0,0-5.509,3.014,11.848,11.848,0,0,0-1.983,6.3c0,3.356,1.983,5.474,4.76,5.474a5.552,5.552,0,0,0,3.553-1.057l-.347-2.538A3.643,3.643,0,0,1,877.031,537.54Zm11.129-11.747a6.944,6.944,0,0,0-6,3.151,12.255,12.255,0,0,0-1.932,6.375c0,3.1,1.749,5.263,5.135,5.263a6.962,6.962,0,0,0,6.032-3.17,12.547,12.547,0,0,0,1.934-6.378C893.325,527.935,891.549,525.793,888.16,525.793Zm.025,9.926c-.552,1.269-1.29,2.061-2.434,2.061-1.165,0-1.531-.848-1.531-2.061a15.641,15.641,0,0,1,1.139-5.243c.554-1.267,1.348-2.119,2.456-2.119,1.133,0,1.535.873,1.535,2.094A16.351,16.351,0,0,1,888.185,535.719Zm22.751-9.926a8.646,8.646,0,0,0-5.146,1.441,5.567,5.567,0,0,0-4.117-1.441,15.767,15.767,0,0,0-6.053,1.065l-2.834,13.593h4.161l2.433-11.774a5.047,5.047,0,0,1,1.765-.3c1.25,0,1.9.534,1.9,1.416a3.347,3.347,0,0,1-.058.506l-2.109,10.15h4.165l2.345-11.317a3.225,3.225,0,0,1,2-.754c1.231,0,1.74.588,1.74,1.416a3.969,3.969,0,0,1-.053.533l-2.111,10.123h4.164l2.058-9.986a4.724,4.724,0,0,0,.105-1.039C915.3,527.287,913.853,525.793,910.936,525.793Z" transform="translate(-737.99 -516.59)" fill="#ed3024"/>
</svg>
