<svg xmlns="http://www.w3.org/2000/svg" width="244.459" height="32" viewBox="0 0 244.459 32">
  <g id="vna" transform="translate(-1078.979 54.442)">
    <path id="Path_8904" data-name="Path 8904" d="M1258.125-35.747c0-.926.993-1.419,2.086-1.419,1.86,0,1.651,1.483,2.98,1.483a.877.877,0,0,0,.972-.938c0-1.023-1.36-1.7-3.475-1.772a8.73,8.73,0,0,0-3.8.577,1.522,1.522,0,0,0-1.174,1.5v10.052c0,.53.257.53,1.209.53s1.205,0,1.205-.53Zm-61.095,1.786c.006-3.815-3.32-4.419-5.732-4.419a12.2,12.2,0,0,0-4.515.855c-.811.358-.88.807-.88,1.549l.005,9.728c0,.53.262.53,1.207.53s1.208,0,1.208-.53l0-8.982c0-.793.282-1.888,3.036-1.888,2.6,0,3.257,1.541,3.257,3.157l0,7.713c0,.53.26.53,1.205.53s1.209,0,1.209-.53Zm53.949,7.7c0,.529.261.529,1.2.529s1.21,0,1.21-.529l.01-11.455c.01-.842-1.151-.631-1.741-.245-.662.431-.684.648-.684,1.483ZM1238.2-33.025c.358-.912,2.65-6.908,2.772-7.246.035-.1.133-.1.172,0,.162.421,2.478,6.312,2.822,7.224.075.2.1.363-.161.363h-5.41c-.331,0-.252-.2-.2-.344m6.672,2.213c.822,1.952,1.78,4.277,1.954,4.672s.2.428,1.441.432c1.541,0,1.6-.048,1.307-.722-.08-.182-6.085-14.605-6.419-15.393s-.479-.846-1.727-.846-1.4.032-1.741.846-6.375,15.316-6.451,15.5c-.255.617-.126.621,1,.617,1,0,1.07-.03,1.253-.439l1.859-4.652c.111-.28.148-.394.477-.394,1.273,0,4.9,0,6.57-.006.32,0,.354.091.481.388m8.718-11a1.3,1.3,0,0,0-1.642-.843,1.291,1.291,0,0,0-1.157,1.432,1.3,1.3,0,0,0,1.645.842,1.288,1.288,0,0,0,1.155-1.432m11.363,15.556c0,.53.26.53,1.2.53s1.209,0,1.209-.53l.009-16.42c.01-.841-1.15-.63-1.741-.244-.66.431-.684.646-.684,1.481Zm7.716-15.551a1.3,1.3,0,0,0-1.643-.842,1.289,1.289,0,0,0-1.157,1.432,1.3,1.3,0,0,0,1.644.842,1.289,1.289,0,0,0,1.157-1.432m-2.609,15.544c0,.528.261.528,1.2.528s1.209,0,1.209-.528l.01-11.456c.009-.841-1.15-.63-1.742-.244-.66.431-.683.646-.683,1.482Zm16.169-7.689c.008-3.816-3.32-4.42-5.732-4.42a12.2,12.2,0,0,0-4.515.854c-.812.359-.88.808-.88,1.55l.007,9.728c0,.528.26.528,1.206.528s1.208,0,1.208-.528l0-8.981c0-.793.281-1.889,3.036-1.889,2.6,0,3.255,1.541,3.255,3.159l.005,7.711c0,.528.26.528,1.2.528s1.21,0,1.21-.528Zm25.45,4.849c-.094-4.23-7.988-3.453-7.99-6.4,0-1.153,1.183-1.684,2.468-1.684,1.848,0,2.46.618,2.847,1.519a1.267,1.267,0,0,0,1.25.805.921.921,0,0,0,.98-.961c0-.935-1.3-2.583-4.85-2.607-2.942-.019-4.933,1.1-4.935,3.424,0,4.351,7.9,3.424,7.886,6.441,0,1.246-1.166,1.824-2.854,1.842a2.9,2.9,0,0,1-3.069-1.845,1.314,1.314,0,0,0-1.283-.9,1,1,0,0,0-1.054,1.081c0,.887,1.544,2.948,5.294,2.948,3.072,0,5.364-1.238,5.31-3.664m-151.921,2.84c0,.528.261.528,1.2.528s1.209,0,1.209-.528l.01-11.456c.01-.841-1.15-.63-1.741-.244-.662.431-.683.646-.683,1.482Zm44.7.824a8.721,8.721,0,0,0,4.243-.9,1.314,1.314,0,0,0,.906-1.463v-6.9c0-2.631-2.188-3.724-4.694-3.719-4.089.01-5.717,1.764-5.782,2.9a.954.954,0,0,0,1.033,1.063,1.317,1.317,0,0,0,1.255-.811,3,3,0,0,1,3.155-1.9c1.4,0,2.649.641,2.644,2.3v.733c0,.225,0,.272-.2.3-3.683.59-8.466,1.748-8.466,5.131,0,2.1,2.524,3.268,5.9,3.273m2.763-2.931c0,1.277-1.661,1.614-2.889,1.614-2.168,0-3.248-.927-3.248-2.15,0-2.228,2.877-3.032,5.877-3.662.159-.034.257-.051.257.176ZM1162.362-41.8a1.3,1.3,0,0,0-1.644-.842,1.289,1.289,0,0,0-1.157,1.432,1.3,1.3,0,0,0,1.645.842,1.289,1.289,0,0,0,1.155-1.432m65.161,15.565c0,.53.259.525,1.207.528s1.206,0,1.206-.528v-8.189c0-3.256-3.055-3.931-4.864-3.931a5.133,5.133,0,0,0-4.141,1.515,5.064,5.064,0,0,0-4.109-1.515,10.015,10.015,0,0,0-4.036.889,1.29,1.29,0,0,0-.894,1.433v9.8c0,.53.263.53,1.206.53s1.206,0,1.206-.53l0-9.126c0-1.361,1.092-1.735,2.524-1.735,1.782,0,2.874.838,2.874,2.94v7.921c0,.53.26.53,1.208.53s1.2,0,1.2-.53v-8.077a2.527,2.527,0,0,1,2.759-2.793c1.865,0,2.66,1.217,2.66,2.831Zm-60.717-7.739a3.6,3.6,0,0,1,3.634-3.192c1.9-.015,3.573,1.141,3.66,2.841.026.49-.1.551-.686.551h-6.425c-.179,0-.2-.08-.184-.2m9.7,4.538a.441.441,0,0,0-.472-.434c-.278,0-.418.1-.585.387a5.17,5.17,0,0,1-4.295,2.377c-2.82.026-4.447-2-4.375-5.131,0-.107.044-.2.207-.2s4.413-.008,8.7,0c.822,0,.836-.544.836-.994,0-2.592-2.416-4.987-5.88-4.987-3.6,0-6.358,1.961-6.358,6.473,0,4.8,3.587,6.5,6.647,6.5,3.7,0,5.578-2.858,5.578-3.994m113.831-4.538a3.6,3.6,0,0,1,3.635-3.192c1.9-.015,3.572,1.141,3.661,2.841.026.49-.1.551-.686.551h-6.425c-.179,0-.2-.08-.185-.2m9.7,4.538a.441.441,0,0,0-.472-.434c-.279,0-.416.1-.583.387a5.175,5.175,0,0,1-4.3,2.377c-2.819.026-4.446-2-4.374-5.131a.182.182,0,0,1,.205-.2c.162,0,4.413-.008,8.7,0,.822,0,.835-.544.835-.994,0-2.592-2.416-4.987-5.88-4.987-3.6,0-6.358,1.961-6.358,6.473,0,4.8,3.588,6.5,6.646,6.5,3.7,0,5.578-2.858,5.578-3.994m-150.682,2.88c.33.789.407.85,1.665.85,1.211,0,1.238-.048,1.59-.858s4.95-12.366,6.169-15.388c.272-.672.155-.729-.93-.729-.949,0-1.036.055-1.216.465,0,0-5.151,13.172-5.262,13.476-.028.086-.138.092-.184-.011-.165-.374-5.394-13.5-5.394-13.5-.126-.336-.157-.457-1.571-.457-1.539,0-1.437.148-1.131.905.074.183,5.933,14.461,6.264,15.25m29.488-11.65c-.566.009-1.334,0-1.334,0-.381,0-.384.21-.384.639,0,.41,0,.624.382.624h1.336c.274,0,.285.03.282.316-.008.6,0,7.883,0,7.883,0,2.87,1.534,3.212,3.054,3.236,1.5.021,2.486-.423,2.469-.954-.01-.307-.214-.445-.563-.406a4.764,4.764,0,0,1-.746.1c-.8,0-1.8-.215-1.8-1.96V-36.6c0-.3,0-.343.3-.341h2.174c.381,0,.394-.214.394-.624s-.013-.642-.394-.642h-2.186c-.292,0-.289-.029-.29-.283v-2.651a.519.519,0,0,0-.583-.553,2.489,2.489,0,0,0-.951.49,1.528,1.528,0,0,0-.882,1.586v1.11c0,.3-.013.3-.282.3" transform="translate(-19.779 -3.462)" fill="#006886" fill-rule="evenodd"/>
    <path id="Path_8905" data-name="Path 8905" d="M1100.641-30.859a13.791,13.791,0,0,1-8.461,2.507c-4.533,0-9.374-2.32-10.893-2.275a2.876,2.876,0,0,0-1.3.235c-.635.265-1.253-.124-.909-.776a8.7,8.7,0,0,1,5.132-4.221c1.4-.422,2.676-.563,3.336.171,1.458,1.617,4.09,3.613,6.647,3.875.207.021,1.136.1,1.147-.162.01-.162-.307-.267-.629-.29-2.611-.19-7.323-2.986-9.911-8.4-.971-2.032-1.741-4-3.435-4.861-.373-.18-.386-.873.4-1.06a13.391,13.391,0,0,1,8,1.627c1.826.961,2.082,1.822,2.089,2.574-.017,5.676,2.853,7.929,3.963,8.594.62.37,1.2.528,1.259.334.05-.163-.113-.273-.255-.358-3.443-2.09-4.351-5.3-4.377-8.58-.027-3.238,1.174-6.039,2.024-8.335a5.407,5.407,0,0,0,.184-2.96c-.255-.945-.048-1.22.451-1.22.544,0,1.27.883,1.514,1.186a14.259,14.259,0,0,1,1.788,2.894,19.249,19.249,0,0,1,1.911,8.148c0,2.693-.695,3-1.827,3.563s-1.667,1.278-1.668,2.112a2.2,2.2,0,0,0,1.667,2.064c.833.244,1.361.152,1.316-.064-.035-.171-.4-.214-.51-.243-1.131-.307-1.882-.887-1.882-1.757,0-1.086,1.34-1.882,3.222-1.882s3.224.8,3.224,1.882c0,.87-.751,1.451-1.882,1.757-.107.029-.475.071-.511.242-.044.217.484.309,1.317.064a2.2,2.2,0,0,0,1.667-2.063c0-.834-.538-1.554-1.668-2.113s-1.826-.869-1.826-3.561a19.262,19.262,0,0,1,1.91-8.149,14.422,14.422,0,0,1,1.788-2.895c.246-.3.972-1.186,1.516-1.186.5,0,.705.275.45,1.22a5.41,5.41,0,0,0,.184,2.96c.85,2.3,2.053,5.1,2.025,8.336-.026,3.275-.937,6.49-4.378,8.58-.143.084-.307.2-.255.357.061.195.637.038,1.257-.333,1.11-.666,3.982-2.919,3.965-8.595.007-.753.262-1.614,2.088-2.574a13.41,13.41,0,0,1,8-1.626c.788.187.776.88.4,1.06-1.695.858-2.465,2.829-3.435,4.86-2.589,5.415-7.3,8.213-9.911,8.4-.323.022-.639.128-.629.289.011.261.941.184,1.148.162,2.556-.262,5.188-2.257,6.646-3.875.662-.734,1.938-.593,3.338-.17a8.689,8.689,0,0,1,5.131,4.221c.345.651-.272,1.039-.907.775a2.906,2.906,0,0,0-1.3-.235c-1.519-.044-6.359,2.278-10.894,2.277a13.782,13.782,0,0,1-8.459-2.508" fill="#dba510"/>
    <path id="Path_8906" data-name="Path 8906" d="M1415.521-44.4a.494.494,0,0,1,.645-.256.486.486,0,0,1,.258.646.481.481,0,0,1-.642.255.491.491,0,0,1-.261-.644m.818.394a.411.411,0,0,0-.165-.559.41.41,0,0,0-.563.16.418.418,0,0,0,.167.566.418.418,0,0,0,.561-.166m-.289.145-.1-.339-.2.175.2-.506.2.115c.084.046.157.114.1.213s-.133.093-.22.05Zm-.064-.4c.057.032.154.1.2.023l-.083-.117-.126-.07-.066.122Zm-7.7,12.548v0Zm.3-4.539c-.362.32-1.081,1.009-1.773,1.677l-.789.755A10.454,10.454,0,0,0,1404.1-34a5.064,5.064,0,0,0-3.4,1.023,1.058,1.058,0,0,0-.339.767c.014.708.821,1.062,1.065,1.153a3.486,3.486,0,0,0,3.517-.459,18.406,18.406,0,0,0,1.976-1.715c.462.106.983.243,1.543.408l.519.149c-.673.662-1.36,1.358-2,1.921a5.773,5.773,0,0,1-2.507,1.6,1.9,1.9,0,0,1-1.263-.086,2.18,2.18,0,0,0,1.881.648,5.011,5.011,0,0,0,2.777-1.521l1.327-1.3.928-.923,1.883.552-1.131,1.139-1,1a19.826,19.826,0,0,1-2.178,1.931,5.272,5.272,0,0,1-2.582,1.115,2.531,2.531,0,0,1-1.407-.271,2.76,2.76,0,0,0,2.141.941c1.2-.04,2.273-.615,3.936-2.141.758-.7,1.511-1.471,2.172-2.164l1.235-1.251a9.363,9.363,0,0,0,2.342.24c1.171-.028,2.172-.584,2.183-1.226a1.057,1.057,0,0,0-.611-.88,2.672,2.672,0,0,0-1.437-.417,4.364,4.364,0,0,0-2.724,1.153l-.618.549-.226-.061-1.719-.488c.51-.472.941-.877,1.327-1.225a4.692,4.692,0,0,1,2.59-1.221,2.99,2.99,0,0,1,1.534.235,2.893,2.893,0,0,0-2.147-.855,4.482,4.482,0,0,0-2.72,1.094,22.028,22.028,0,0,0-1.742,1.644l-.869-.268-.21-.064-.915-.279.524-.491c.617-.606,1.2-1.175,1.65-1.564a5.205,5.205,0,0,1,3.408-1.573,3.16,3.16,0,0,1,1.87.488,3.4,3.4,0,0,0-2.708-1.148,5.483,5.483,0,0,0-3.4,1.587m-6.482,4.954c-.536-.039-.794-.251-.794-.666,0-.052.036-1.365,3.031-1.512a7.039,7.039,0,0,1,1.3.038l-.341.288-.188.174c-.719.657-1.934,1.754-3.013,1.678m12.123-1.059a4.107,4.107,0,0,1,2.026-.88c.263.008.578.086.578.414s-.32.613-.942.839a5.5,5.5,0,0,1-2.3.147,5.226,5.226,0,0,1,.642-.521m.068-9.653-.628-.238.24-.894c.023-.1.064-.243.117-.427l.123-.44c.043-.118.081-.242.121-.374l.066-.212c-.175.307-.245.41-.407.652-.066.11-.13.2-.184.276l-.845,1.19-.546-.145-.17-1.43a2.888,2.888,0,0,1-.026-.316l-.026-.431v-.36l-.076.36c-.088.4-.128.565-.245,1.034l-.249.963-.663-.1.75-2.922,1,.192.142,1.386a6.289,6.289,0,0,1,.031.98,4.664,4.664,0,0,1,.283-.494l.231-.356.784-1.126.957.323Zm-4.8-.958-.783.055-.387-.648-1.2.2-.167.733-.744.188.784-3.265.738-.115Zm-1.712-1.536a4.788,4.788,0,0,1-.32-.612,5.231,5.231,0,0,1-.127.68l-.126.57.87-.14Zm-4.072.377-1.507.882.319.552,1.385-.811.255.443-1.378.807.367.639,1.538-.9.28.476-2.158,1.262-1.506-2.581,2.125-1.246Zm-4.033,2.831-.633.773,1.885,1.542-.45.552-1.888-1.543-.628.771-.427-.352,1.711-2.1Zm-2.022,5.491,1.151.4-.14.4-1.152-.4-2.062.624.172-.492,1.284-.359.157-.046c.063-.019.1-.024.214-.052-.1-.118-.122-.147-.229-.291l-.79-1.075.167-.47Zm-1.322,4.628,1.758-1.476.013.547-1.491,1.231.483.53,1.047-.021.009.431-2.986.064-.012-.43,1.177-.026h.312l-.2-.211-1.318-1.427-.016-.569Zm.329,4.189c-.369.2-.45.51-.263.991.176.432.448.624.739.5.234-.09.274-.293.179-.818l-.044-.2a2.116,2.116,0,0,1-.051-.956.681.681,0,0,1,.421-.5c.525-.208,1.021.118,1.315.851.319.8.148,1.4-.475,1.655l-.155-.391c.434-.184.542-.588.307-1.168-.188-.472-.484-.684-.8-.552-.255.1-.312.335-.218.872l.036.223.033.2a1.687,1.687,0,0,1,.038.706.618.618,0,0,1-.4.452c-.493.2-.969-.093-1.233-.756-.287-.722-.133-1.257.416-1.5ZM1417.2-40.179a11.661,11.661,0,0,1,3.332,7.38,11.588,11.588,0,0,1-10.746,12.368,11.535,11.535,0,0,1-8-2.474,11.48,11.48,0,0,0,8.695,3.1,11.586,11.586,0,0,0,10.753-12.362,11.57,11.57,0,0,0-4.034-8.008" transform="translate(-97.823 -2.663)" fill="#27156d" fill-rule="evenodd"/>
  </g>
</svg>
