<svg id="_24x24-BoardingGate" data-name="24x24-BoardingGate" xmlns="http://www.w3.org/2000/svg" width="24" height="24" viewBox="0 0 24 24">
  <rect id="Frame24" width="24" height="24" fill="#fff" opacity="0"/>
  <path id="boarding-gate" d="M19.184,13.271a.738.738,0,0,1,0,1.045l-.369.369a.74.74,0,0,1-1.045,0L17,13.915v2.846a.739.739,0,0,1-.739.739H15.74a.739.739,0,0,1-.74-.739V13.915l-.77.77a.74.74,0,0,1-1.045,0l-.369-.369a.738.738,0,0,1,0-1.045l2.662-2.662a.74.74,0,0,1,1.045,0l2.662,2.662ZM11.3,17a.716.716,0,0,1-.75.645.668.668,0,0,1-.688-.749,2.422,2.422,0,0,1-2,.874A3.478,3.478,0,0,1,4.3,14.08,3.578,3.578,0,0,1,7.99,10.393a3.286,3.286,0,0,1,2.938,1.437.669.669,0,0,1-.375,1l-.188.062a.683.683,0,0,1-.812-.25,1.8,1.8,0,0,0-1.563-.75,2.049,2.049,0,0,0-2.062,2.25,2.067,2.067,0,0,0,2.125,2.25,1.792,1.792,0,0,0,1.687-.937c.063-.063.063-.188-.125-.188H8.365a.688.688,0,0,1,0-1.375h2.25a.694.694,0,0,1,.688.688V17ZM7,5.969A.5.5,0,0,1,7.493,5.5H16.26A.74.74,0,0,1,17,6.24v.521a.739.739,0,0,1-.739.739H7.74A.739.739,0,0,1,7,6.761V5.969ZM19.74,5.5H21.26A.739.739,0,0,0,22,4.761V4.24a.74.74,0,0,0-.739-.74H2.74A.74.74,0,0,0,2,4.24v.521a.739.739,0,0,0,.74.739H4.26A.74.74,0,0,1,5,6.24V7a.5.5,0,0,1-.5.5A2.5,2.5,0,0,0,2,10v7.761A2.739,2.739,0,0,0,4.74,20.5H19.26A2.739,2.739,0,0,0,22,17.761V10a2.5,2.5,0,0,0-2.5-2.5A.5.5,0,0,1,19,7V6.24A.74.74,0,0,1,19.74,5.5Z" transform="translate(0.001)" fill="#21262C"/>
<style type="text/css" media="screen">path{vector-effect:non-scaling-stroke}</style></svg>
