<svg id="_24x24-InsuranceConfirmed" data-name="24x24-InsuranceConfirmed" xmlns="http://www.w3.org/2000/svg" width="24" height="24" viewBox="0 0 24 24">
  <rect id="Frame24" width="24" height="24" fill="#fff" opacity="0"/>
  <path id="insurance-confirmed" d="M11.956,3A17.838,17.838,0,0,1,19.1,4.429a2.1,2.1,0,0,1,1.2,1.655v5.492a9.679,9.679,0,0,1-6.395,8.953l-.828.3a3.6,3.6,0,0,1-2.182,0l-.828-.3a9.472,9.472,0,0,1-6.4-8.953V6.085A1.878,1.878,0,0,1,4.809,4.429,17.838,17.838,0,0,1,11.956,3Zm4.6,4.191a.961.961,0,0,0-1.4.3l-4.8,5.95-1.65-1.8a.991.991,0,1,0-1.45,1.35l2.5,2.7a1.018,1.018,0,0,0,.75.3h.05a1.072,1.072,0,0,0,.75-.45l5.5-7a.925.925,0,0,0-.25-1.35Z" transform="translate(0.021)" fill="#21262C"/>
<style type="text/css" media="screen">path{vector-effect:non-scaling-stroke}</style></svg>
