<svg id="_24x24-Contact-Global" data-name="24x24-Contact-Global" xmlns="http://www.w3.org/2000/svg" width="24" height="24" viewBox="0 0 24 24">
  <rect id="Frame24" width="24" height="24" fill="#fff" opacity="0"/>
  <g id="Group_12557" data-name="Group 12557" transform="translate(0.005 -0.002)">
    <path id="Path_8757" data-name="Path 8757" d="M12.416,12h-1a.36.36,0,0,0-.333.333v.083a3.723,3.723,0,0,0,1.333,2,.392.392,0,0,0,.5-.083.307.307,0,0,0,.083-.25,6.321,6.321,0,0,1-.25-1.75A.359.359,0,0,0,12.416,12Z" fill="#21262C"/>
    <path id="Path_8758" data-name="Path 8758" d="M11.333,11.084h1a.357.357,0,0,0,.333-.333A6.321,6.321,0,0,1,12.916,9a.447.447,0,0,0-.25-.334.307.307,0,0,0-.25.083,3.839,3.839,0,0,0-1.333,1.917A.46.46,0,0,0,11.333,11.084Z" fill="#21262C"/>
    <path id="Path_8759" data-name="Path 8759" d="M15.25,12.084H14a.357.357,0,0,0-.333.333,7.938,7.938,0,0,0,.75,2.75h.333a7.472,7.472,0,0,0,.75-2.75C15.583,12.25,15.416,12.084,15.25,12.084Z" fill="#21262C"/>
    <path id="Path_8760" data-name="Path 8760" d="M15.166,11.084a.36.36,0,0,0,.333-.333A5.459,5.459,0,0,0,14.749,8h-.5a7.472,7.472,0,0,0-.75,2.75.553.553,0,0,0,.417.333Z" fill="#21262C"/>
    <path id="Path_8761" data-name="Path 8761" d="M17.833,12h-1a.357.357,0,0,0-.333.333,12.606,12.606,0,0,1-.25,1.75.318.318,0,0,0,.2.4.289.289,0,0,0,.3-.07,3.723,3.723,0,0,0,1.333-2C18.166,12.25,18,12.084,17.833,12Z" fill="#21262C"/>
    <path id="Path_8762" data-name="Path 8762" d="M19.333,3H7.169A1.672,1.672,0,0,0,5.5,4.667V5.832A.179.179,0,0,1,5.335,6h-1.5a.834.834,0,1,0,0,1.667H7.887a.667.667,0,0,1,.64.693h0A.665.665,0,0,1,7.836,9H5.919c-.25-.084-.417.083-.417.333v5.25a.179.179,0,0,1-.167.167h-1.5a.834.834,0,0,0-.1,0A.787.787,0,0,0,3,15.582a.834.834,0,0,0,0,.1.787.787,0,0,0,.833.738h4a.666.666,0,0,1,.666.666v0a.666.666,0,0,1-.666.666H5.913c-.25-.084-.417.083-.417.333v1.25A1.672,1.672,0,0,0,7.163,21H19.327a1.67,1.67,0,0,0,1.667-1.667V4.665A1.673,1.673,0,0,0,19.333,3Zm-4.75,13.166a4.583,4.583,0,1,1,4.583-4.583A4.583,4.583,0,0,1,14.583,16.166Z" fill="#21262C"/>
    <path id="Path_8763" data-name="Path 8763" d="M16.833,8.75a.392.392,0,0,0-.5.083c-.083,0-.083.167-.083.25a5.774,5.774,0,0,1,.25,1.667.357.357,0,0,0,.333.333h.917a.361.361,0,0,0,.333-.333v-.083A3.386,3.386,0,0,0,16.833,8.75Z" fill="#21262C"/>
  </g>
<style type="text/css" media="screen">path{vector-effect:non-scaling-stroke}</style></svg>
