<svg id="_24x24-Clock" data-name="24x24-Clock" xmlns="http://www.w3.org/2000/svg" width="24" height="24" viewBox="0 0 24 24">
  <rect id="Frame24" width="24" height="24" fill="#fff" opacity="0"/>
  <path id="clock" d="M12,2A10,10,0,1,1,2,12,10.012,10.012,0,0,1,12,2Zm0,18.333A8.333,8.333,0,1,0,3.667,12,8.342,8.342,0,0,0,12,20.333Zm4.278-5.158a.833.833,0,0,1,.052,1.177.842.842,0,0,1-1.177.051L11.02,12.615A.833.833,0,0,1,10.75,12V7.417a.833.833,0,1,1,1.667,0v4.218l3.862,3.541Z" fill="#21262C"/>
<style type="text/css" media="screen">path{vector-effect:non-scaling-stroke}</style></svg>
