<svg id="_24x24-FlightsMulticity" data-name="24x24-FlightsMulticity" xmlns="http://www.w3.org/2000/svg" width="24" height="24" viewBox="0 0 24 24">
  <rect id="Frame24" width="24" height="24" fill="#fff" opacity="0"/>
  <path id="flight-multicity" d="M17.949,8.611l.085.072L20.816,11.6a.532.532,0,0,1,.066.731l-.066.06-2.782,2.922a.554.554,0,0,1-.426.182.568.568,0,0,1-.6-.5L17,14.891V12.9H14a.9.9,0,0,1-.893-.787L13.1,12a.9.9,0,0,1,.9-.9h3V9.109a.657.657,0,0,1,.183-.426A.585.585,0,0,1,17.949,8.611Zm-10.1,0,.085.072L10.716,11.6a.532.532,0,0,1,.066.731l-.066.06L7.935,15.318a.554.554,0,0,1-.426.182.568.568,0,0,1-.6-.5L6.9,14.891V12.9h-3a.9.9,0,0,1-.893-.787L3,12a.9.9,0,0,1,.787-.893L3.9,11.1h3V9.109a.657.657,0,0,1,.183-.426.585.585,0,0,1,.767-.072Z" fill="#21262C"/>
<style type="text/css" media="screen">path{vector-effect:non-scaling-stroke}</style></svg>
